<svg width="151" height="20" viewBox="0 0 151 20" fill="none" xmlns="http://www.w3.org/2000/svg">
<path d="M0.0640001 19H6.808C10.696 19 13.792 17.368 13.792 13.72C13.792 11.344 12.424 10 10.624 9.52V9.424C12.064 8.872 12.952 7.144 12.952 5.56C12.952 2.128 10 1.12 6.304 1.12H0.0640001V19ZM4.36 8.224V4.408H6.136C7.936 4.408 8.776 4.936 8.776 6.208C8.776 7.432 7.96 8.224 6.136 8.224H4.36ZM4.36 15.712V11.368H6.496C8.584 11.368 9.616 11.968 9.616 13.432C9.616 14.968 8.56 15.712 6.496 15.712H4.36ZM14.4955 19H18.8635L21.0955 10.072C21.5515 8.296 22.0315 6.208 22.4635 4.336H22.5595C23.0395 6.16 23.4955 8.296 23.9755 10.072L26.2075 19H30.7195L25.1755 1.12H20.0395L14.4955 19ZM18.2635 14.896H26.9035V11.584H18.2635V14.896ZM39.7099 19.336C42.0379 19.336 44.0299 18.448 45.5419 16.696L43.2859 14.008C42.4459 14.92 41.3179 15.64 39.8779 15.64C37.3579 15.64 35.7259 13.576 35.7259 10.024C35.7259 6.544 37.6219 4.48 39.9259 4.48C41.1979 4.48 42.1339 5.056 43.0459 5.872L45.2779 3.136C44.0539 1.888 42.1819 0.808 39.8539 0.808C35.3179 0.808 31.3339 4.216 31.3339 10.168C31.3339 16.216 35.1739 19.336 39.7099 19.336ZM48.1578 19H52.4538V14.32L54.3978 11.68L58.6218 19H63.3018L56.8938 8.296L62.2938 1.12H57.5898L52.5258 8.2H52.4538V1.12H48.1578V19ZM62.6688 13.552H69.4608V10.552H62.6688V13.552ZM77.3268 19.336C81.6468 19.336 84.1428 16.72 84.1428 13.744C84.1428 11.224 82.8228 9.736 80.6148 8.848L78.3828 7.96C76.7988 7.336 75.6948 6.952 75.6948 5.944C75.6948 5.008 76.4868 4.48 77.8068 4.48C79.1988 4.48 80.3028 4.96 81.4788 5.848L83.6148 3.16C82.0547 1.6 79.8708 0.808 77.8068 0.808C74.0148 0.808 71.3268 3.208 71.3268 6.208C71.3268 8.8 73.0788 10.36 74.9508 11.104L77.2308 12.064C78.7668 12.712 79.7508 13.048 79.7508 14.08C79.7508 15.04 79.0068 15.64 77.4228 15.64C76.0068 15.64 74.3508 14.896 73.1028 13.816L70.6548 16.768C72.5028 18.472 74.9988 19.336 77.3268 19.336ZM89.8403 19H94.1363V4.696H98.9843V1.12H85.0163V4.696H89.8403V19ZM108.143 19.336C113.015 19.336 116.327 15.832 116.327 9.976C116.327 4.144 113.015 0.808 108.143 0.808C103.271 0.808 99.9589 4.12 99.9589 9.976C99.9589 15.832 103.271 19.336 108.143 19.336ZM108.143 15.64C105.791 15.64 104.351 13.432 104.351 9.976C104.351 6.52 105.791 4.48 108.143 4.48C110.495 4.48 111.959 6.52 111.959 9.976C111.959 13.432 110.495 15.64 108.143 15.64ZM127.202 19.336C129.53 19.336 131.522 18.448 133.034 16.696L130.778 14.008C129.938 14.92 128.81 15.64 127.37 15.64C124.85 15.64 123.218 13.576 123.218 10.024C123.218 6.544 125.114 4.48 127.418 4.48C128.69 4.48 129.626 5.056 130.538 5.872L132.77 3.136C131.546 1.888 129.674 0.808 127.346 0.808C122.81 0.808 118.826 4.216 118.826 10.168C118.826 16.216 122.666 19.336 127.202 19.336ZM135.65 19H139.946V14.32L141.89 11.68L146.114 19H150.794L144.386 8.296L149.786 1.12H145.082L140.018 8.2H139.946V1.12H135.65V19Z" fill="#0075FF" fill-opacity="0.2"/>
</svg>
