<svg width="931" height="115" viewBox="0 0 931 115" fill="none" xmlns="http://www.w3.org/2000/svg">
<rect width="931" height="115" rx="12" fill="#E3DAFD"/>
<path d="M63.272 66.582V67.428C63.272 69.588 60.824 71.64 57.494 72.108L58.232 73.638C62.03 73.026 64.928 70.578 64.928 67.428V66.582H63.272ZM63.614 66.582V67.428C63.614 70.56 66.512 73.026 70.31 73.638L71.048 72.108C67.718 71.64 65.252 69.552 65.252 67.428V66.582H63.614ZM63.272 76.338V82.494H65.144V76.338H63.272ZM56.828 75.15V76.698H71.696V75.15H56.828ZM75.8526 76.608V78.12H85.0506V82.494H86.9406V76.608H75.8526ZM85.0506 66.042V75.762H86.9406V66.042H85.0506ZM78.0666 66.978C75.5466 66.978 73.6926 68.616 73.6926 70.938C73.6926 73.26 75.5466 74.88 78.0666 74.88C80.5686 74.88 82.4226 73.26 82.4226 70.938C82.4226 68.616 80.5686 66.978 78.0666 66.978ZM78.0666 68.58C79.5246 68.58 80.5866 69.498 80.5866 70.938C80.5866 72.378 79.5246 73.296 78.0666 73.296C76.6086 73.296 75.5286 72.378 75.5286 70.938C75.5286 69.498 76.6086 68.58 78.0666 68.58ZM89.9272 73.44V74.844H104.831V73.44H89.9272ZM91.6552 76.086V77.4H101.159V78.534H91.6912V81.468H93.5632V79.776H103.013V76.086H91.6552ZM91.6912 81.036V82.35H103.517V81.036H91.6912ZM91.7992 66.42V67.716H101.105V68.814H91.8172V71.622H93.6892V70.038H102.959V66.42H91.7992ZM91.8172 71.172V72.486H103.265V71.172H91.8172ZM93.7792 73.962V76.914H95.6512V73.962H93.7792ZM99.1072 73.962V76.914H100.979V73.962H99.1072ZM122.679 66.042V76.14H124.461V66.042H122.679ZM120.321 70.272V71.784H123.201V70.272H120.321ZM119.097 66.348V75.582H120.861V66.348H119.097ZM111.249 73.746V75.258H112.347C114.741 75.258 116.415 75.204 118.395 74.808L118.233 73.332C116.307 73.692 114.669 73.746 112.347 73.746H111.249ZM111.213 67.23V68.724H115.605V70.452H111.249V74.916H113.067V71.856H117.423V67.23H111.213ZM118.989 76.41C115.551 76.41 113.427 77.544 113.427 79.434C113.427 81.342 115.551 82.476 118.989 82.476C122.391 82.476 124.551 81.342 124.551 79.434C124.551 77.544 122.391 76.41 118.989 76.41ZM118.989 77.85C121.293 77.85 122.661 78.426 122.661 79.434C122.661 80.46 121.293 81.018 118.989 81.018C116.667 81.018 115.281 80.46 115.281 79.434C115.281 78.426 116.667 77.85 118.989 77.85ZM133.873 67.104V67.896C133.873 70.92 132.145 73.278 127.483 74.592L128.185 76.086C133.567 74.52 135.835 71.496 135.835 67.104H133.873ZM128.239 67.104V68.616H134.935V67.104H128.239ZM133.801 70.146L127.411 70.416L127.699 71.91L133.801 71.46V70.146ZM138.769 66.06V75.852H140.659V66.06H138.769ZM135.169 76.104C131.749 76.104 129.607 77.292 129.607 79.29C129.607 81.306 131.749 82.476 135.169 82.476C138.589 82.476 140.749 81.306 140.749 79.29C140.749 77.292 138.589 76.104 135.169 76.104ZM135.169 77.58C137.509 77.58 138.859 78.192 138.859 79.29C138.859 80.388 137.509 81.018 135.169 81.018C132.829 81.018 131.479 80.388 131.479 79.29C131.479 78.192 132.829 77.58 135.169 77.58ZM159.353 66.024V82.512H161.243V66.024H159.353ZM152.477 67.248C150.029 67.248 148.247 69.498 148.247 73.044C148.247 76.59 150.029 78.858 152.477 78.858C154.943 78.858 156.725 76.59 156.725 73.044C156.725 69.498 154.943 67.248 152.477 67.248ZM152.477 68.958C153.917 68.958 154.907 70.488 154.907 73.044C154.907 75.618 153.917 77.166 152.477 77.166C151.037 77.166 150.047 75.618 150.047 73.044C150.047 70.488 151.037 68.958 152.477 68.958ZM176.398 66.042V78.498H178.18V66.042H176.398ZM170.818 70.704V72.234H173.716V70.704H170.818ZM173.176 66.348V78.012H174.958V66.348H173.176ZM164.914 67.338V75.51H171.34V67.338H169.576V69.984H166.696V67.338H164.914ZM166.696 71.442H169.576V73.998H166.696V71.442ZM167.308 80.64V82.17H178.648V80.64H167.308ZM167.308 76.842V81.504H169.198V76.842H167.308ZM182.66 74.736V76.23H194.072V74.736H182.66ZM180.824 78.93V80.478H195.728V78.93H180.824ZM182.66 67.356V75.168H184.568V68.886H193.91V67.356H182.66ZM183.974 71.01V72.486H193.55V71.01H183.974ZM204.007 72.288V73.818H206.923V72.288H204.007ZM209.623 66.042V82.494H211.423V66.042H209.623ZM206.311 66.348V81.702H208.093V66.348H206.311ZM201.073 67.32C198.931 67.32 197.545 69.552 197.545 73.152C197.545 76.77 198.931 79.002 201.073 79.002C203.233 79.002 204.619 76.77 204.619 73.152C204.619 69.552 203.233 67.32 201.073 67.32ZM201.073 69.084C202.207 69.084 202.891 70.56 202.891 73.152C202.891 75.744 202.207 77.22 201.073 77.22C199.957 77.22 199.273 75.744 199.273 73.152C199.273 70.56 199.957 69.084 201.073 69.084ZM221.89 68.76V69.426C221.89 71.442 220.45 73.296 217.912 74.034L218.812 75.51C221.746 74.628 223.42 72.252 223.42 69.426V68.76H221.89ZM222.232 68.76V69.426C222.232 72.09 223.888 74.376 226.822 75.222L227.686 73.746C225.166 73.044 223.78 71.28 223.78 69.426V68.76H222.232ZM218.434 67.842V69.336H227.236V67.842H218.434ZM221.89 65.97V68.472H223.78V65.97H221.89ZM228.928 66.042V75.726H230.818V66.042H228.928ZM230.296 70.056V71.622H233.14V70.056H230.296ZM220.324 76.464V82.296H230.818V76.464H220.324ZM228.964 77.958V80.784H222.178V77.958H228.964ZM241.923 69.57V71.1H246.675V69.57H241.923ZM241.923 74.736V76.266H246.675V74.736H241.923ZM238.971 67.248C236.541 67.248 234.813 69.498 234.813 73.044C234.813 76.59 236.541 78.858 238.971 78.858C241.401 78.858 243.129 76.59 243.129 73.044C243.129 69.498 241.401 67.248 238.971 67.248ZM238.971 68.958C240.393 68.958 241.347 70.488 241.347 73.044C241.347 75.618 240.393 77.166 238.971 77.166C237.567 77.166 236.595 75.618 236.595 73.044C236.595 70.488 237.567 68.958 238.971 68.958ZM246.315 66.024V82.512H248.187V66.024H246.315ZM261.973 66.042V82.494H263.845V66.042H261.973ZM263.413 72.648V74.214H266.401V72.648H263.413ZM251.011 68.58V70.092H260.659V68.58H251.011ZM255.889 71.28C253.531 71.28 251.803 72.864 251.803 75.114C251.803 77.382 253.531 78.966 255.889 78.966C258.229 78.966 259.957 77.382 259.957 75.114C259.957 72.864 258.229 71.28 255.889 71.28ZM255.889 72.828C257.203 72.828 258.157 73.728 258.157 75.114C258.157 76.5 257.203 77.418 255.889 77.418C254.557 77.418 253.603 76.5 253.603 75.114C253.603 73.728 254.557 72.828 255.889 72.828ZM254.917 66.276V69.21H256.807V66.276H254.917ZM279.324 66.06V78.084H281.214V66.06H279.324ZM270.468 80.64V82.17H281.682V80.64H270.468ZM270.468 76.95V81.396H272.358V76.95H270.468ZM271.746 66.96V68.598C271.746 70.974 270.324 73.332 267.714 74.286L268.686 75.798C271.638 74.682 273.312 71.802 273.312 68.598V66.96H271.746ZM272.106 66.96V68.598C272.106 71.748 273.762 74.448 276.66 75.492L277.632 73.998C275.076 73.116 273.654 70.92 273.654 68.598V66.96H272.106ZM288.244 74.61V76.122H303.148V74.61H288.244ZM294.904 75.402V79.038H296.776V75.402H294.904ZM290.062 80.64V82.17H301.492V80.64H290.062ZM290.062 77.67V81.252H291.934V77.67H290.062ZM290.188 66.564V73.224H301.204V66.564H299.332V68.472H292.042V66.564H290.188ZM292.042 69.912H299.332V71.73H292.042V69.912ZM315.343 74.286V77.166H317.215V74.286H315.343ZM308.845 73.638V75.15H323.713V73.638H308.845ZM316.261 76.626C312.715 76.626 310.591 77.67 310.591 79.56C310.591 81.414 312.715 82.476 316.261 82.476C319.789 82.476 321.931 81.414 321.931 79.56C321.931 77.67 319.789 76.626 316.261 76.626ZM316.261 78.066C318.673 78.066 320.023 78.57 320.023 79.56C320.023 80.514 318.673 81.036 316.261 81.036C313.849 81.036 312.499 80.514 312.499 79.56C312.499 78.57 313.849 78.066 316.261 78.066ZM315.019 67.482V67.932C315.019 69.534 312.823 71.01 309.601 71.316L310.249 72.81C314.029 72.396 316.693 70.506 316.693 67.932V67.482H315.019ZM315.883 67.482V67.932C315.883 70.506 318.547 72.396 322.309 72.81L322.975 71.316C319.735 71.01 317.539 69.552 317.539 67.932V67.482H315.883ZM310.213 66.762V68.274H322.381V66.762H310.213ZM331.409 70.02V71.532H342.695V70.02H331.409ZM331.409 66.384V71.01H333.281V66.384H331.409ZM329.465 73.314V74.808H344.333V73.314H329.465ZM335.945 71.1V74.376H337.817V71.1H335.945ZM331.085 76.212V77.706H342.713V76.212H331.085ZM330.923 80.784V82.296H342.875V80.784H330.923ZM333.443 76.626V81.504H335.315V76.626H333.443ZM338.483 76.626V81.504H340.337V76.626H338.483ZM346.005 74.574V76.086H360.873V74.574H346.005ZM347.877 80.64V82.17H359.217V80.64H347.877ZM347.877 77.382V81.108H349.767V77.382H347.877ZM353.439 66.564C349.893 66.564 347.589 67.824 347.589 69.894C347.589 71.964 349.893 73.224 353.439 73.224C356.985 73.224 359.307 71.964 359.307 69.894C359.307 67.824 356.985 66.564 353.439 66.564ZM353.439 68.076C355.869 68.076 357.363 68.742 357.363 69.894C357.363 71.064 355.869 71.712 353.439 71.712C351.027 71.712 349.533 71.064 349.533 69.894C349.533 68.742 351.027 68.076 353.439 68.076ZM373.069 66.582V67.428C373.069 69.588 370.621 71.64 367.291 72.108L368.029 73.638C371.827 73.026 374.725 70.578 374.725 67.428V66.582H373.069ZM373.411 66.582V67.428C373.411 70.56 376.309 73.026 380.107 73.638L380.845 72.108C377.515 71.64 375.049 69.552 375.049 67.428V66.582H373.411ZM373.069 76.338V82.494H374.941V76.338H373.069ZM366.625 75.15V76.698H381.493V75.15H366.625ZM385.649 76.608V78.12H394.847V82.494H396.737V76.608H385.649ZM394.847 66.042V75.762H396.737V66.042H394.847ZM387.863 66.978C385.343 66.978 383.489 68.616 383.489 70.938C383.489 73.26 385.343 74.88 387.863 74.88C390.365 74.88 392.219 73.26 392.219 70.938C392.219 68.616 390.365 66.978 387.863 66.978ZM387.863 68.58C389.321 68.58 390.383 69.498 390.383 70.938C390.383 72.378 389.321 73.296 387.863 73.296C386.405 73.296 385.325 72.378 385.325 70.938C385.325 69.498 386.405 68.58 387.863 68.58ZM399.724 73.44V74.844H414.628V73.44H399.724ZM401.452 76.086V77.4H410.956V78.534H401.488V81.468H403.36V79.776H412.81V76.086H401.452ZM401.488 81.036V82.35H413.314V81.036H401.488ZM401.596 66.42V67.716H410.902V68.814H401.614V71.622H403.486V70.038H412.756V66.42H401.596ZM401.614 71.172V72.486H413.062V71.172H401.614ZM403.576 73.962V76.914H405.448V73.962H403.576ZM408.904 73.962V76.914H410.776V73.962H408.904ZM423.717 66.294C420.027 66.294 417.867 67.302 417.867 69.138C417.867 70.956 420.027 71.964 423.717 71.964C427.407 71.964 429.585 70.956 429.585 69.138C429.585 67.302 427.407 66.294 423.717 66.294ZM423.717 67.698C426.273 67.698 427.623 68.202 427.623 69.138C427.623 70.074 426.273 70.56 423.717 70.56C421.179 70.56 419.811 70.074 419.811 69.138C419.811 68.202 421.179 67.698 423.717 67.698ZM416.283 72.918V74.412H431.151V72.918H416.283ZM418.047 75.618V77.022H427.443V78.21H418.065V81.306H419.937V79.542H429.297V75.618H418.047ZM418.065 80.892V82.35H429.765V80.892H418.065ZM448.584 66.042V82.494H450.474V66.042H448.584ZM443.76 67.788V68.112C443.76 72.504 441.762 75.762 437.028 78.048L438.018 79.56C443.67 76.806 445.614 72.666 445.614 67.788H443.76ZM437.838 67.788V69.3H444.606V67.788H437.838ZM453.443 74.988V76.5H468.347V74.988H453.443ZM455.315 66.42V67.86H464.621V69.246H455.333V72.63H457.205V70.614H466.475V66.42H455.315ZM455.333 72.054V73.512H466.817V72.054H455.333ZM459.959 72.774V75.78H461.831V72.774H459.959ZM455.099 77.616V79.128H464.693V82.386H466.583V77.616H455.099ZM480.891 66.042V82.494H482.763V66.042H480.891ZM482.331 72.648V74.214H485.319V72.648H482.331ZM469.929 68.58V70.092H479.577V68.58H469.929ZM474.807 71.28C472.449 71.28 470.721 72.864 470.721 75.114C470.721 77.382 472.449 78.966 474.807 78.966C477.147 78.966 478.875 77.382 478.875 75.114C478.875 72.864 477.147 71.28 474.807 71.28ZM474.807 72.828C476.121 72.828 477.075 73.728 477.075 75.114C477.075 76.5 476.121 77.418 474.807 77.418C473.475 77.418 472.521 76.5 472.521 75.114C472.521 73.728 473.475 72.828 474.807 72.828ZM473.835 66.276V69.21H475.725V66.276H473.835ZM498.242 66.06V78.084H500.132V66.06H498.242ZM489.386 80.64V82.17H500.6V80.64H489.386ZM489.386 76.95V81.396H491.276V76.95H489.386ZM490.664 66.96V68.598C490.664 70.974 489.242 73.332 486.632 74.286L487.604 75.798C490.556 74.682 492.23 71.802 492.23 68.598V66.96H490.664ZM491.024 66.96V68.598C491.024 71.748 492.68 74.448 495.578 75.492L496.55 73.998C493.994 73.116 492.572 70.92 492.572 68.598V66.96H491.024ZM511.158 81.252C513.606 81.252 515.604 79.848 515.604 77.454C515.604 75.654 514.398 74.52 512.868 74.124V74.034C514.272 73.512 515.154 72.45 515.154 70.92C515.154 68.742 513.48 67.518 511.104 67.518C509.574 67.518 508.35 68.166 507.288 69.102L508.386 70.416C509.142 69.66 510.006 69.174 511.014 69.174C512.292 69.174 513.048 69.912 513.048 71.082C513.048 72.414 512.184 73.386 509.592 73.386V74.934C512.562 74.934 513.498 75.87 513.498 77.346C513.498 78.714 512.472 79.542 510.996 79.542C509.61 79.542 508.638 78.876 507.864 78.084L506.838 79.416C507.738 80.424 509.088 81.252 511.158 81.252ZM517.427 74.61V76.122H532.331V74.61H517.427ZM524.087 75.402V79.038H525.959V75.402H524.087ZM519.245 80.64V82.17H530.675V80.64H519.245ZM519.245 77.67V81.252H521.117V77.67H519.245ZM519.371 66.564V73.224H530.387V66.564H528.515V68.472H521.225V66.564H519.371ZM521.225 69.912H528.515V71.73H521.225V69.912ZM536.416 67.968V68.112C536.416 71.838 536.002 75.006 533.896 77.976L535.354 78.786C537.568 75.564 538.018 71.784 538.018 67.968H536.416ZM534.328 67.968V69.498H537.388V67.968H534.328ZM540.052 67.968V68.13C540.052 71.784 539.89 75.636 537.55 78.912L539.008 79.74C541.438 76.194 541.654 71.802 541.654 67.968H540.052ZM538.522 67.968V69.498H541.096V67.968H538.522ZM546.334 66.042V82.494H548.134V66.042H546.334ZM540.88 72.378V73.89H543.562V72.378H540.88ZM543.22 66.438V81.702H545.002V66.438H543.22ZM555.127 67.554V78.48H561.499V67.554H559.753V71.424H556.909V67.554H555.127ZM556.909 72.918H559.753V76.95H556.909V72.918ZM566.845 66.042V82.494H568.645V66.042H566.845ZM564.469 72.45V73.98H567.439V72.45H564.469ZM563.209 66.348V81.702H564.991V66.348H563.209ZM572.01 67.41V75.204H579.804V67.41H572.01ZM577.968 68.922V73.692H573.846V68.922H577.968ZM582.828 66.06V77.814H584.718V66.06H582.828ZM573.972 80.514V82.044H585.186V80.514H573.972ZM573.972 76.716V81.162H575.862V76.716H573.972ZM595.582 66.906V68.49C595.582 70.884 594.196 73.098 591.604 74.016L592.594 75.51C595.51 74.43 597.13 71.712 597.13 68.49V66.906H595.582ZM595.942 66.906V68.652C595.942 71.568 597.562 74.052 600.352 75.042L601.342 73.566C598.876 72.756 597.472 70.776 597.472 68.652V66.906H595.942ZM602.71 66.042V75.906H604.6V66.042H602.71ZM604.078 70.092V71.658H606.922V70.092H604.078ZM599.308 76.32C595.906 76.32 593.818 77.454 593.818 79.398C593.818 81.342 595.906 82.476 599.308 82.476C602.692 82.476 604.78 81.342 604.78 79.398C604.78 77.454 602.692 76.32 599.308 76.32ZM599.308 77.796C601.594 77.796 602.908 78.354 602.908 79.398C602.908 80.442 601.594 81 599.308 81C597.022 81 595.689 80.442 595.689 79.398C595.689 78.354 597.022 77.796 599.308 77.796ZM614.804 74.916V77.598H616.676V74.916H614.804ZM608.306 73.872V75.384H623.174V73.872H608.306ZM609.656 66.528V68.058H621.806V66.528H609.656ZM609.746 71.064V72.576H621.716V71.064H609.746ZM611.96 67.14V72.054H613.85V67.14H611.96ZM617.612 67.14V72.054H619.502V67.14H617.612ZM610.088 77.058V82.296H621.374V77.058H610.088ZM619.538 78.534V80.784H611.942V78.534H619.538ZM629.257 73.548V77.418H631.129V73.548H629.257ZM636.691 66.042V78.444H638.599V66.042H636.691ZM627.097 80.64V82.17H638.977V80.64H627.097ZM627.097 77.148V81.054H628.987V77.148H627.097ZM624.991 73.944C627.961 73.926 631.921 73.854 635.503 73.224L635.377 71.874C631.867 72.36 627.781 72.414 624.757 72.414L624.991 73.944ZM633.307 74.916V76.392H637.141V74.916H633.307ZM626.251 66.96V68.472H633.289V66.96H626.251ZM632.119 66.96V67.572C632.119 68.508 632.119 70.164 631.705 72.576L633.559 72.702C633.991 70.29 633.991 68.544 633.991 67.572V66.96H632.119ZM648.857 66.294C645.167 66.294 643.007 67.302 643.007 69.138C643.007 70.956 645.167 71.964 648.857 71.964C652.547 71.964 654.725 70.956 654.725 69.138C654.725 67.302 652.547 66.294 648.857 66.294ZM648.857 67.698C651.413 67.698 652.763 68.202 652.763 69.138C652.763 70.074 651.413 70.56 648.857 70.56C646.319 70.56 644.951 70.074 644.951 69.138C644.951 68.202 646.319 67.698 648.857 67.698ZM641.423 72.918V74.412H656.291V72.918H641.423ZM643.187 75.618V77.022H652.583V78.21H643.205V81.306H645.077V79.542H654.437V75.618H643.187ZM643.205 80.892V82.35H654.905V80.892H643.205ZM663.861 73.8V75.312H675.273V73.8H663.861ZM662.043 78.822V80.37H676.947V78.822H662.043ZM663.861 67.482V74.448H665.733V69.03H675.129V67.482H663.861ZM690.265 66.042V75.15H692.155V66.042H690.265ZM679.447 73.296V74.826H680.815C683.965 74.826 686.179 74.754 688.771 74.34L688.555 72.81C686.035 73.224 683.893 73.296 680.815 73.296H679.447ZM679.411 66.816V68.328H685.063V70.038H679.447V74.304H681.283V71.478H686.917V66.816H679.411ZM681.391 75.906V82.296H692.155V75.906H690.283V77.598H683.245V75.906H681.391ZM683.245 79.056H690.283V80.766H683.245V79.056ZM706.86 66.042V82.494H708.732V66.042H706.86ZM696.114 67.626V77.832H697.986V67.626H696.114ZM696.114 76.716V78.336H697.518C700.074 78.336 702.72 78.156 705.564 77.562L705.348 75.978C702.594 76.536 699.966 76.716 697.518 76.716H696.114ZM722.573 66.024V82.512H724.463V66.024H722.573ZM724.031 72.342V73.908H727.019V72.342H724.031ZM712.385 76.914V78.48H713.717C716.705 78.48 718.901 78.39 721.421 77.94L721.223 76.356C718.793 76.806 716.633 76.914 713.717 76.914H712.385ZM712.385 67.59V77.634H714.257V69.12H720.035V67.59H712.385ZM730.131 81.252C730.905 81.252 731.517 80.64 731.517 79.794C731.517 78.93 730.905 78.336 730.131 78.336C729.339 78.336 728.745 78.93 728.745 79.794C728.745 80.64 729.339 81.252 730.131 81.252Z" fill="black"/>
<path d="M68.168 38.848V41.416H74.024V38.848H68.168ZM62.12 33.616V36.832C62.12 41.056 60.44 45.352 56.648 47.104L58.64 49.672C62.816 47.584 64.712 42.424 64.712 36.832V33.616H62.12ZM62.792 33.616V36.832C62.792 42.376 64.544 47.272 68.72 49.288L70.616 46.744C66.944 45.112 65.336 41.056 65.336 36.832V33.616H62.792ZM72.44 31.888V54.184H75.608V31.888H72.44ZM94.2781 31.888V54.184H97.4941V31.888H94.2781ZM80.1421 33.664V49H91.0621V33.664H87.8941V39.064H83.3101V33.664H80.1421ZM83.3101 41.536H87.8941V46.432H83.3101V41.536ZM109.372 33.184V34.792C109.372 37.984 106.612 41.512 101.596 42.376L102.964 45.016C108.724 43.888 112.156 39.616 112.156 34.792V33.184H109.372ZM110.02 33.184V34.792C110.02 39.688 113.428 43.888 119.188 45.016L120.556 42.376C115.516 41.512 112.78 38.056 112.78 34.792V33.184H110.02ZM101.14 48.832V51.424H121.252V48.832H101.14ZM129.472 42.88V45.424H131.296C135.52 45.424 138.208 45.352 141.232 44.872L140.992 42.328C138.04 42.808 135.448 42.88 131.296 42.88H129.472ZM129.448 33.376V35.92H136.336V38.104H129.472V44.536H132.64V40.504H139.48V33.376H129.448ZM144.04 31.936V48.28H147.232V31.936H144.04ZM132.448 51.208V53.752H147.784V51.208H132.448ZM132.448 46.984V52.024H135.64V46.984H132.448ZM140.56 37.24V39.928H144.664V37.24H140.56ZM156.134 35.656V36.472C156.134 38.992 154.55 41.584 150.902 42.616L152.39 45.088C156.71 43.888 158.75 40.384 158.75 36.472V35.656H156.134ZM156.734 35.656V36.472C156.734 40.192 158.822 43.504 163.142 44.632L164.582 42.136C160.958 41.2 159.326 38.8 159.326 36.472V35.656H156.734ZM151.646 34.24V36.736H163.79V34.24H151.646ZM156.134 31.96V35.344H159.326V31.96H156.134ZM165.974 31.936V45.304H169.19V31.936H165.974ZM161.654 45.688C156.95 45.688 154.07 47.248 154.07 49.912C154.07 52.6 156.95 54.136 161.654 54.136C166.358 54.136 169.286 52.6 169.286 49.912C169.286 47.248 166.358 45.688 161.654 45.688ZM161.654 48.136C164.558 48.136 166.094 48.712 166.094 49.912C166.094 51.136 164.558 51.712 161.654 51.712C158.774 51.712 157.262 51.136 157.262 49.912C157.262 48.712 158.774 48.136 161.654 48.136ZM193.538 31.912V54.136H196.754V31.912H193.538ZM186.986 34.216V34.792C186.986 40.744 184.682 44.776 178.298 47.848L179.954 50.392C187.85 46.576 190.154 41.008 190.154 34.216H186.986ZM179.474 34.216V36.736H188.498V34.216H179.474ZM201.6 32.872V42.28H204.768V32.872H201.6ZM201.6 41.824V44.392H203.328C206.688 44.392 209.496 44.296 212.616 43.72L212.256 41.2C209.256 41.704 206.568 41.824 203.328 41.824H201.6ZM215.712 31.912V44.896H218.904V31.912H215.712ZM210.432 33.88V36.304H216.504V33.88H210.432ZM210.432 37.792V40.192H216.504V37.792H210.432ZM204.192 45.832V53.896H218.904V45.832H204.192ZM215.76 48.328V51.376H207.336V48.328H215.76ZM236.195 32.56V33.592C236.195 36.208 233.675 39.112 228.563 39.784L229.811 42.352C235.643 41.488 239.003 37.864 239.003 33.592V32.56H236.195ZM236.795 32.56V33.592C236.795 37.864 240.155 41.488 245.987 42.352L247.211 39.784C242.123 39.112 239.579 36.184 239.579 33.592V32.56H236.795ZM236.219 46V54.136H239.387V46H236.219ZM227.843 43.984V46.576H247.931V43.984H227.843ZM253.21 46V48.52H265.162V54.136H268.378V46H253.21ZM265.162 31.912V44.944H268.378V31.912H265.162ZM256.282 33.112C252.826 33.112 250.234 35.392 250.234 38.56C250.234 41.728 252.826 43.984 256.282 43.984C259.714 43.984 262.306 41.728 262.306 38.56C262.306 35.392 259.714 33.112 256.282 33.112ZM256.282 35.824C257.962 35.824 259.186 36.808 259.186 38.56C259.186 40.312 257.962 41.32 256.282 41.32C254.602 41.32 253.354 40.312 253.354 38.56C253.354 36.808 254.602 35.824 256.282 35.824ZM271.976 41.728V44.056H292.112V41.728H271.976ZM274.232 45.328V47.488H286.568V48.592H274.28V52.504H277.448V50.608H289.712V45.328H274.232ZM274.28 51.832V53.992H290.336V51.832H274.28ZM274.448 32.272V34.408H286.52V35.488H274.472V39.328H277.64V37.504H289.664V32.272H274.448ZM274.472 38.584V40.744H290.072V38.584H274.472ZM276.92 42.52V46.696H280.088V42.52H276.92ZM284 42.52V46.696H287.168V42.52H284ZM315.403 31.912V45.472H318.427V31.912H315.403ZM312.763 37.336V39.88H316.267V37.336H312.763ZM310.651 32.32V44.752H313.627V32.32H310.651ZM300.379 41.896V44.416H301.915C305.203 44.416 307.363 44.368 309.883 43.888L309.619 41.392C307.171 41.824 305.107 41.896 301.915 41.896H300.379ZM300.355 33.424V35.92H305.707V37.672H300.379V43.912H303.475V40H308.779V33.424H300.355ZM310.891 45.736C306.211 45.736 303.259 47.32 303.259 49.936C303.259 52.552 306.211 54.136 310.891 54.136C315.547 54.136 318.547 52.552 318.547 49.936C318.547 47.32 315.547 45.736 310.891 45.736ZM310.891 48.16C313.747 48.16 315.331 48.76 315.331 49.936C315.331 51.136 313.747 51.712 310.891 51.712C308.035 51.712 306.427 51.136 306.427 49.936C306.427 48.76 308.035 48.16 310.891 48.16ZM330.161 33.232V34.624C330.161 38.44 328.217 41.392 321.929 43.096L323.129 45.616C330.593 43.48 333.473 39.424 333.473 33.232H330.161ZM323.057 33.232V35.752H332.033V33.232H323.057ZM330.305 37.384L321.929 37.672L322.385 40.144L330.305 39.568V37.384ZM336.833 31.936V45.016H340.049V31.936H336.833ZM332.537 45.376C327.857 45.376 324.929 47.008 324.929 49.768C324.929 52.528 327.857 54.136 332.537 54.136C337.193 54.136 340.145 52.528 340.145 49.768C340.145 47.008 337.193 45.376 332.537 45.376ZM332.537 47.872C335.417 47.872 336.953 48.472 336.953 49.768C336.953 51.04 335.417 51.688 332.537 51.688C329.633 51.688 328.121 51.04 328.121 49.768C328.121 48.472 329.633 47.872 332.537 47.872ZM364.325 31.888V54.184H367.541V31.888H364.325ZM355.565 33.448C352.205 33.448 349.733 36.52 349.733 41.368C349.733 46.264 352.205 49.336 355.565 49.336C358.925 49.336 361.397 46.264 361.397 41.368C361.397 36.52 358.925 33.448 355.565 33.448ZM355.565 36.352C357.221 36.352 358.325 38.104 358.325 41.368C358.325 44.68 357.221 46.456 355.565 46.456C353.909 46.456 352.781 44.68 352.781 41.368C352.781 38.104 353.909 36.352 355.565 36.352ZM387.075 31.912V48.688H390.099V31.912H387.075ZM379.899 38.056V40.6H383.427V38.056H379.899ZM382.611 32.272V48.016H385.611V32.272H382.611ZM371.931 33.616V44.848H380.739V33.616H377.763V36.976H374.931V33.616H371.931ZM374.931 39.424H377.763V42.328H374.931V39.424ZM375.147 51.208V53.752H390.675V51.208H375.147ZM375.147 46.504V52.72H378.339V46.504H375.147ZM395.617 43.36V45.856H411.241V43.36H395.617ZM393.265 49V51.592H413.377V49H393.265ZM395.617 33.52V44.056H398.857V36.088H411.049V33.52H395.617ZM397.873 38.416V40.888H410.545V38.416H397.873ZM417.647 45.952H419.951L420.455 37.096L420.551 33.76H417.023L417.119 37.096L417.647 45.952ZM418.775 52.336C420.047 52.336 420.983 51.352 420.983 50.032C420.983 48.712 420.047 47.752 418.775 47.752C417.527 47.752 416.591 48.712 416.591 50.032C416.591 51.352 417.527 52.336 418.775 52.336Z" fill="black"/>
<g filter="url(#filter0_d_3191_1074)">
<path fill-rule="evenodd" clip-rule="evenodd" d="M889.686 33H817V47.0573V51.1714V53.7715C817 58.1898 820.582 61.7715 825 61.7715H881.686C886.104 61.7715 889.686 58.1898 889.686 53.7715V51.1714V47.0573V33Z" fill="url(#paint0_linear_3191_1074)"/>
<path fill-rule="evenodd" clip-rule="evenodd" d="M877.571 33H829.114V61.7551C829.114 61.7605 829.114 61.766 829.114 61.7714C829.114 61.7768 829.114 61.7822 829.114 61.7876V66.3143H829.539C831.666 77.5239 841.515 86 853.343 86C865.171 86 875.02 77.5239 877.146 66.3143H877.571L877.571 61.7714L877.571 33Z" fill="url(#paint1_linear_3191_1074)"/>
<path fill-rule="evenodd" clip-rule="evenodd" d="M851.828 46.7709C852.343 45.5474 854.077 45.5474 854.592 46.7709L858.098 55.0909L865.88 55.4938C867.206 55.5624 867.795 57.1928 866.82 58.0936L860.999 63.47L862.603 71.412C862.866 72.7133 861.433 73.6894 860.318 72.9683L853.257 68.4018L846.197 72.9683C845.082 73.6894 843.649 72.7133 843.912 71.412L845.498 63.5552L839.585 58.0936C838.61 57.1928 839.2 55.5624 840.525 55.4938L848.323 55.0901L851.828 46.7709Z" fill="white"/>
</g>
<defs>
<filter id="filter0_d_3191_1074" x="810" y="32" width="86.6857" height="67" filterUnits="userSpaceOnUse" color-interpolation-filters="sRGB">
<feFlood flood-opacity="0" result="BackgroundImageFix"/>
<feColorMatrix in="SourceAlpha" type="matrix" values="0 0 0 0 0 0 0 0 0 0 0 0 0 0 0 0 0 0 127 0" result="hardAlpha"/>
<feOffset dy="6"/>
<feGaussianBlur stdDeviation="3.5"/>
<feComposite in2="hardAlpha" operator="out"/>
<feColorMatrix type="matrix" values="0 0 0 0 0.8233 0 0 0 0 0.535 0 0 0 0 1 0 0 0 0.71 0"/>
<feBlend mode="normal" in2="BackgroundImageFix" result="effect1_dropShadow_3191_1074"/>
<feBlend mode="normal" in="SourceGraphic" in2="effect1_dropShadow_3191_1074" result="shape"/>
</filter>
<linearGradient id="paint0_linear_3191_1074" x1="853.343" y1="33" x2="853.343" y2="61.7716" gradientUnits="userSpaceOnUse">
<stop stop-color="#9831FF"/>
<stop offset="1" stop-color="#C361FF"/>
</linearGradient>
<linearGradient id="paint1_linear_3191_1074" x1="853.343" y1="33" x2="853.343" y2="86" gradientUnits="userSpaceOnUse">
<stop stop-color="#C377FF"/>
<stop offset="1" stop-color="#F9E9FF"/>
</linearGradient>
</defs>
</svg>
