<svg width="931" height="115" viewBox="0 0 931 115" fill="none" xmlns="http://www.w3.org/2000/svg">
<rect width="931" height="115" rx="12" fill="#E9F3FF"/>
<path d="M65.234 68.76V70.29H69.374V68.76H65.234ZM68.564 66.042V74.466H70.454V66.042H68.564ZM59.744 75.24V76.716H68.582V78.012H59.78V81.702H61.634V79.398H70.454V75.24H59.744ZM59.78 80.802V82.296H70.994V80.802H59.78ZM60.77 66.564V67.95C60.77 70.2 59.348 72.234 56.756 73.062L57.728 74.556C60.644 73.566 62.3 71.01 62.3 67.95V66.564H60.77ZM61.112 66.564V67.95C61.112 70.812 62.75 73.242 65.558 74.196L66.53 72.738C64.064 71.946 62.642 70.002 62.642 67.95V66.564H61.112ZM73.3686 74.322V75.834H88.2726V74.322H73.3686ZM80.0286 75.276V78.912H81.9006V75.276H80.0286ZM75.2406 66.78V72.702H86.3466V66.78H75.2406ZM84.4926 68.274V71.208H77.0946V68.274H84.4926ZM75.1866 80.64V82.17H86.6166V80.64H75.1866ZM75.1866 77.418V81.162H77.0586V77.418H75.1866ZM89.9452 78.93V80.478H104.849V78.93H89.9452ZM96.4432 75.096V79.398H98.3152V75.096H96.4432ZM96.3892 68.148V68.976C96.3892 71.442 93.7972 73.728 90.5932 74.25L91.3492 75.744C95.0032 75.024 97.9912 72.396 97.9912 68.976V68.148H96.3892ZM96.7672 68.148V68.976C96.7672 72.396 99.7552 74.97 103.481 75.672L104.219 74.178C100.961 73.674 98.3512 71.442 98.3512 68.976V68.148H96.7672ZM91.1692 67.428V68.958H103.571V67.428H91.1692ZM110.374 67.392V70.092C110.374 73.134 108.772 76.284 106.216 77.526L107.368 79.038C110.194 77.598 111.904 73.926 111.904 70.092V67.392H110.374ZM110.734 67.392V70.092C110.734 73.8 112.372 77.31 115.108 78.732L116.26 77.238C113.794 76.014 112.246 73.026 112.246 70.092V67.392H110.734ZM117.358 66.042V82.494H119.248V66.042H117.358ZM118.816 72.558V74.124H121.804V72.558H118.816ZM131.119 72.792V75.294H133.009V72.792H131.119ZM132.037 66.762C129.661 66.762 127.951 68.094 127.951 70.056C127.951 72 129.661 73.332 132.037 73.332C134.413 73.332 136.105 72 136.105 70.056C136.105 68.094 134.413 66.762 132.037 66.762ZM132.037 68.184C133.405 68.184 134.341 68.904 134.341 70.056C134.341 71.19 133.405 71.91 132.037 71.91C130.669 71.91 129.715 71.19 129.715 70.056C129.715 68.904 130.669 68.184 132.037 68.184ZM138.085 66.06V78.624H139.975V66.06H138.085ZM139.255 71.442V72.99H142.225V71.442H139.255ZM129.319 80.622V82.152H140.551V80.622H129.319ZM129.319 77.544V81.288H131.209V77.544H129.319ZM127.285 76.32C130.057 76.32 133.873 76.266 137.257 75.636L137.131 74.268C133.837 74.772 129.895 74.79 127.051 74.79L127.285 76.32ZM147.642 75.654V79.632H149.496V75.654H147.642ZM152.88 75.636V79.614H154.716V75.636H152.88ZM143.664 79.02V80.568H158.568V79.02H143.664ZM145.41 67.194V68.706H154.914V70.884H145.446V75.456H147.318V72.378H156.786V67.194H145.41ZM145.446 74.646V76.176H157.164V74.646H145.446ZM168.442 67.392V70.092C168.442 73.242 166.75 76.41 164.122 77.598L165.256 79.164C168.208 77.724 169.99 74.07 169.99 70.092V67.392H168.442ZM168.802 67.392V70.092C168.802 73.926 170.584 77.436 173.482 78.804L174.598 77.292C172.006 76.14 170.332 73.116 170.332 70.092V67.392H168.802ZM175.912 66.024V82.512H177.802V66.024H175.912ZM191.347 76.536V82.512H193.219V76.536H191.347ZM184.867 75.942V77.49H199.735V75.942H184.867ZM191.329 68.922V69.336C191.329 71.154 189.007 72.972 185.713 73.386L186.379 74.88C190.213 74.358 192.985 72.126 192.985 69.336V68.922H191.329ZM191.581 68.922V69.336C191.581 72.072 194.335 74.376 198.169 74.88L198.835 73.386C195.559 72.972 193.219 71.118 193.219 69.336V68.922H191.581ZM186.253 68.004V69.516H198.331V68.004H186.253ZM191.347 66.06V68.526H193.219V66.06H191.347ZM205.332 68.868V69.534C205.332 71.55 203.892 73.404 201.354 74.142L202.254 75.618C205.188 74.718 206.862 72.342 206.862 69.534V68.868H205.332ZM205.674 68.868V69.534C205.674 72.234 207.402 74.502 210.354 75.33L211.218 73.854C208.68 73.152 207.222 71.424 207.222 69.534V68.868H205.674ZM201.876 67.842V69.336H210.678V67.842H201.876ZM205.332 65.97V68.472H207.222V65.97H205.332ZM210.246 70.506V72.036H213.666V70.506H210.246ZM213.162 66.042V75.726H215.052V66.042H213.162ZM204.252 76.518V82.296H215.052V76.518H204.252ZM213.198 78.012V80.784H206.106V78.012H213.198ZM225.4 66.294C221.71 66.294 219.55 67.302 219.55 69.138C219.55 70.956 221.71 71.964 225.4 71.964C229.09 71.964 231.268 70.956 231.268 69.138C231.268 67.302 229.09 66.294 225.4 66.294ZM225.4 67.698C227.956 67.698 229.306 68.202 229.306 69.138C229.306 70.074 227.956 70.56 225.4 70.56C222.862 70.56 221.494 70.074 221.494 69.138C221.494 68.202 222.862 67.698 225.4 67.698ZM217.966 72.918V74.412H232.834V72.918H217.966ZM219.73 75.618V77.022H229.126V78.21H219.748V81.306H221.62V79.542H230.98V75.618H219.73ZM219.748 80.892V82.35H231.448V80.892H219.748ZM238.568 74.646V76.14H253.436V74.646H238.568ZM245.048 72.684V75.24H246.92V72.684H245.048ZM240.476 71.856V73.296H251.762V71.856H240.476ZM240.476 66.492V72.666H242.348V67.95H251.654V66.492H240.476ZM241.808 69.174V70.578H251.258V69.174H241.808ZM245.984 77.148C242.384 77.148 240.314 78.084 240.314 79.812C240.314 81.54 242.384 82.476 245.984 82.476C249.584 82.476 251.654 81.54 251.654 79.812C251.654 78.084 249.584 77.148 245.984 77.148ZM245.984 78.552C248.468 78.552 249.764 78.984 249.764 79.812C249.764 80.658 248.468 81.072 245.984 81.072C243.5 81.072 242.204 80.658 242.204 79.812C242.204 78.984 243.5 78.552 245.984 78.552ZM255.108 68.706V70.218H263.136V68.706H255.108ZM259.14 71.154C257.088 71.154 255.576 72.738 255.576 74.988C255.576 77.238 257.088 78.804 259.14 78.804C261.21 78.804 262.704 77.238 262.704 74.988C262.704 72.738 261.21 71.154 259.14 71.154ZM259.14 72.738C260.238 72.738 261.03 73.638 261.03 74.988C261.03 76.356 260.238 77.22 259.14 77.22C258.042 77.22 257.25 76.356 257.25 74.988C257.25 73.638 258.042 72.738 259.14 72.738ZM267.348 66.042V82.494H269.148V66.042H267.348ZM265.008 72.864V74.394H267.942V72.864H265.008ZM263.856 66.384V81.738H265.62V66.384H263.856ZM258.222 66.51V69.642H260.076V66.51H258.222ZM282.118 67.086V68.328C282.118 70.92 279.49 73.476 276.232 74.07L277.06 75.636C280.768 74.844 283.756 71.892 283.756 68.328V67.086H282.118ZM282.478 67.086V68.328C282.478 71.928 285.466 74.844 289.174 75.636L290.002 74.07C286.744 73.476 284.116 70.956 284.116 68.328V67.086H282.478ZM275.746 78.822V80.37H290.65V78.822H275.746ZM292.971 77.094V78.642H294.303C297.273 78.642 299.451 78.57 301.971 78.138L301.791 76.626C299.325 77.04 297.219 77.094 294.303 77.094H292.971ZM292.971 67.482V77.616H294.861V69.03H300.657V67.482H292.971ZM294.393 72.072V73.566H300.351V72.072H294.393ZM303.159 66.042V82.494H305.049V66.042H303.159ZM304.617 72.486V74.052H307.605V72.486H304.617ZM316.729 70.2V71.748H321.085V70.2H316.729ZM309.601 67.014V75.006H317.197V67.014H315.343V69.516H311.473V67.014H309.601ZM311.473 71.01H315.343V73.476H311.473V71.01ZM311.401 76.644V78.174H320.599V82.494H322.489V76.644H311.401ZM320.599 66.042V75.834H322.489V66.042H320.599ZM331.794 67.086V68.328C331.794 70.92 329.166 73.476 325.908 74.07L326.736 75.636C330.444 74.844 333.432 71.892 333.432 68.328V67.086H331.794ZM332.154 67.086V68.328C332.154 71.928 335.142 74.844 338.85 75.636L339.678 74.07C336.42 73.476 333.792 70.956 333.792 68.328V67.086H332.154ZM325.422 78.822V80.37H340.326V78.822H325.422ZM357.705 66.042V82.494H359.595V66.042H357.705ZM352.881 67.788V68.112C352.881 72.504 350.883 75.762 346.149 78.048L347.139 79.56C352.791 76.806 354.735 72.666 354.735 67.788H352.881ZM346.959 67.788V69.3H353.727V67.788H346.959ZM362.582 78.912V80.478H377.486V78.912H362.582ZM363.806 67.59V69.12H376.154V67.59H363.806ZM363.86 74.466V75.996H376.118V74.466H363.86ZM366.218 68.994V74.628H368.108V68.994H366.218ZM371.87 68.994V74.628H373.742V68.994H371.87ZM380.095 77.094V78.642H381.463C384.505 78.642 386.755 78.57 389.329 78.138L389.149 76.626C386.629 77.022 384.451 77.094 381.463 77.094H380.095ZM380.095 67.482V77.616H381.967V69.03H388.23V67.482H380.095ZM381.535 72.072V73.566H387.583V72.072H381.535ZM390.823 66.042V82.494H392.713V66.042H390.823ZM397.409 66.762V68.274H407.921V66.762H397.409ZM406.913 66.762V68.22C406.913 69.768 406.913 71.352 406.463 73.512L408.317 73.656C408.785 71.442 408.785 69.786 408.785 68.22V66.762H406.913ZM407.471 69.786L396.995 70.056L397.247 71.64L407.471 71.172V69.786ZM395.717 74.628V76.14H410.531V74.628H395.717ZM401.495 72.414V75.6H403.385V72.414H401.495ZM397.517 80.712V82.242H409.091V80.712H397.517ZM397.517 77.382V81.378H399.407V77.382H397.517ZM419.674 66.294C415.984 66.294 413.824 67.302 413.824 69.138C413.824 70.956 415.984 71.964 419.674 71.964C423.364 71.964 425.542 70.956 425.542 69.138C425.542 67.302 423.364 66.294 419.674 66.294ZM419.674 67.698C422.23 67.698 423.58 68.202 423.58 69.138C423.58 70.074 422.23 70.56 419.674 70.56C417.136 70.56 415.768 70.074 415.768 69.138C415.768 68.202 417.136 67.698 419.674 67.698ZM412.24 72.918V74.412H427.108V72.918H412.24ZM414.004 75.618V77.022H423.4V78.21H414.022V81.306H415.894V79.542H425.254V75.618H414.004ZM414.022 80.892V82.35H425.722V80.892H414.022ZM437.035 68.508V70.812C437.035 73.62 435.325 76.698 432.787 77.868L433.867 79.362C436.693 78.012 438.547 74.43 438.547 70.812V68.508H437.035ZM437.431 68.508V70.812C437.431 74.34 439.285 77.67 442.147 78.948L443.191 77.454C440.617 76.374 438.925 73.53 438.925 70.812V68.508H437.431ZM433.381 67.68V69.246H442.579V67.68H433.381ZM444.505 66.042V82.494H446.395V66.042H444.505ZM451.272 75.438V82.296H462.432V75.438H460.56V77.4H453.126V75.438H451.272ZM453.126 78.876H460.56V80.784H453.126V78.876ZM451.272 66.744V68.274H461.784V66.744H451.272ZM449.418 72.612V74.142H464.322V72.612H449.418ZM460.614 66.744V68.004C460.614 69.372 460.614 70.902 460.092 73.08L461.982 72.99C462.468 70.848 462.468 69.354 462.468 68.004V66.744H460.614ZM476.848 66.042V82.494H478.72V66.042H476.848ZM478.288 72.648V74.214H481.276V72.648H478.288ZM465.886 68.58V70.092H475.534V68.58H465.886ZM470.764 71.28C468.406 71.28 466.678 72.864 466.678 75.114C466.678 77.382 468.406 78.966 470.764 78.966C473.104 78.966 474.832 77.382 474.832 75.114C474.832 72.864 473.104 71.28 470.764 71.28ZM470.764 72.828C472.078 72.828 473.032 73.728 473.032 75.114C473.032 76.5 472.078 77.418 470.764 77.418C469.432 77.418 468.478 76.5 468.478 75.114C468.478 73.728 469.432 72.828 470.764 72.828ZM469.792 66.276V69.21H471.682V66.276H469.792ZM484.083 67.572V69.102H494.595V67.572H484.083ZM482.535 78.786V80.334H497.403V78.786H482.535ZM488.079 73.008V79.56H489.969V73.008H488.079ZM493.893 67.572V69.174C493.893 71.154 493.893 73.494 493.263 76.698L495.153 76.914C495.783 73.512 495.783 71.226 495.783 69.174V67.572H493.893ZM507.043 76.104V76.842C507.043 78.426 505.963 80.136 503.857 80.874L504.775 82.26C507.241 81.36 508.483 79.146 508.483 76.842V76.104H507.043ZM507.493 76.104V76.842C507.493 79.128 508.501 81.468 510.985 82.422L511.759 81C509.779 80.19 508.861 78.462 508.861 76.842V76.104H507.493ZM513.091 76.104V76.842C513.091 78.282 512.173 80.118 510.211 81L510.985 82.422C513.415 81.414 514.459 78.93 514.459 76.842V76.104H513.091ZM513.505 76.104V76.842C513.505 79.254 514.711 81.396 517.213 82.26L518.131 80.874C516.007 80.19 514.945 78.534 514.945 76.842V76.104H513.505ZM514.801 66.06V75.402H516.691V66.06H514.801ZM507.817 66.96C505.297 66.96 503.443 68.544 503.443 70.848C503.443 73.116 505.297 74.718 507.817 74.718C510.337 74.718 512.173 73.116 512.173 70.848C512.173 68.544 510.337 66.96 507.817 66.96ZM507.817 68.526C509.275 68.526 510.337 69.444 510.337 70.848C510.337 72.252 509.275 73.152 507.817 73.152C506.359 73.152 505.279 72.252 505.279 70.848C505.279 69.444 506.359 68.526 507.817 68.526ZM524.123 67.248C521.693 67.248 519.965 69.498 519.965 73.044C519.965 76.59 521.693 78.858 524.123 78.858C526.553 78.858 528.281 76.59 528.281 73.044C528.281 69.498 526.553 67.248 524.123 67.248ZM524.123 68.958C525.545 68.958 526.499 70.488 526.499 73.044C526.499 75.618 525.545 77.166 524.123 77.166C522.719 77.166 521.765 75.618 521.765 73.044C521.765 70.488 522.719 68.958 524.123 68.958ZM531.467 66.024V82.512H533.339V66.024H531.467ZM527.705 72.162V73.674H532.277V72.162H527.705ZM539.728 74.466V79.236H541.6V74.466H539.728ZM545.758 74.466V79.236H547.648V74.466H545.758ZM536.254 78.93V80.478H551.158V78.93H536.254ZM543.67 66.978C540.16 66.978 537.622 68.67 537.622 71.298C537.622 73.908 540.16 75.6 543.67 75.6C547.18 75.6 549.718 73.908 549.718 71.298C549.718 68.67 547.18 66.978 543.67 66.978ZM543.67 68.454C546.154 68.454 547.882 69.552 547.882 71.298C547.882 73.026 546.154 74.124 543.67 74.124C541.186 74.124 539.458 73.026 539.458 71.298C539.458 69.552 541.186 68.454 543.67 68.454ZM554.378 76.788H555.764L556.052 69.588L556.106 67.428H554.018L554.072 69.588L554.378 76.788ZM555.062 81.252C555.854 81.252 556.448 80.64 556.448 79.794C556.448 78.93 555.854 78.336 555.062 78.336C554.288 78.336 553.676 78.93 553.676 79.794C553.676 80.64 554.288 81.252 555.062 81.252Z" fill="black"/>
<path d="M58.184 52H64.52C68.408 52 71.384 50.344 71.384 46.768C71.384 44.392 69.968 43.024 68.072 42.568V42.472C69.584 41.92 70.472 40.264 70.472 38.632C70.472 35.32 67.688 34.24 64.04 34.24H58.184V52ZM61.736 41.464V36.976H63.848C65.984 36.976 67.016 37.576 67.016 39.136C67.016 40.576 66.056 41.464 63.8 41.464H61.736ZM61.736 49.264V44.104H64.208C66.656 44.104 67.928 44.848 67.928 46.576C67.928 48.4 66.608 49.264 64.208 49.264H61.736ZM77.5199 52.336C79.0559 52.336 80.3999 51.592 81.5759 50.584H81.6719L81.9359 52H84.8159V44.176C84.8159 40.264 83.0639 38.248 79.6559 38.248C77.5199 38.248 75.6239 39.04 74.0399 40L75.3119 42.352C76.5359 41.608 77.7599 41.08 79.0079 41.08C80.6639 41.08 81.2159 42.064 81.2879 43.384C75.8879 43.984 73.5599 45.496 73.5599 48.352C73.5599 50.656 75.1199 52.336 77.5199 52.336ZM78.6719 49.576C77.6399 49.576 76.9199 49.12 76.9199 48.088C76.9199 46.864 77.9999 45.976 81.2879 45.568V48.28C80.4239 49.12 79.6799 49.576 78.6719 49.576ZM94.0996 52.336C95.5876 52.336 97.2436 51.832 98.5156 50.728L97.1236 48.4C96.3796 49 95.4676 49.48 94.4836 49.48C92.5636 49.48 91.1716 47.824 91.1716 45.304C91.1716 42.76 92.5396 41.128 94.6276 41.128C95.3476 41.128 95.9956 41.416 96.6676 41.992L98.3236 39.736C97.3396 38.872 96.0916 38.248 94.4116 38.248C90.7636 38.248 87.5716 40.84 87.5716 45.304C87.5716 49.744 90.4036 52.336 94.0996 52.336ZM101.068 52H104.524V48.616L106.42 46.432L109.684 52H113.5L108.484 44.104L113.092 38.584H109.204L104.644 44.344H104.524V32.872H101.068V52ZM125.598 52.336C128.43 52.336 130.638 51.136 132.246 49.336C134.142 47.2 135.414 44.776 136.206 42.088H132.99C132.366 44.416 131.238 46.312 129.846 47.752C128.67 48.904 127.35 49.624 126.03 49.624C124.35 49.624 123.174 48.616 123.174 47.08C123.174 43.672 130.782 42.472 130.782 37.792C130.782 35.464 129.198 33.928 126.654 33.928C123.846 33.928 122.022 35.944 122.022 38.416C122.022 42.04 125.886 46.936 130.182 49.936C131.982 51.136 133.806 52 135.486 52.336L136.35 49.48C135.174 49.24 133.758 48.592 132.318 47.656C128.742 45.376 124.95 41.368 124.95 38.416C124.95 37.12 125.694 36.256 126.726 36.256C127.638 36.256 128.07 36.928 128.07 37.816C128.07 41.368 119.814 41.656 119.814 47.296C119.814 50.056 121.902 52.336 125.598 52.336ZM149.785 52.336C153.865 52.336 156.289 49.864 156.289 46.96C156.289 44.416 154.873 43.024 152.737 42.136L150.409 41.176C148.897 40.576 147.625 40.096 147.625 38.824C147.625 37.672 148.609 36.976 150.169 36.976C151.633 36.976 152.809 37.504 153.961 38.44L155.737 36.208C154.297 34.744 152.233 33.928 150.169 33.928C146.593 33.928 144.025 36.16 144.025 39.064C144.025 41.632 145.849 43.096 147.625 43.816L150.001 44.824C151.585 45.496 152.665 45.928 152.665 47.248C152.665 48.472 151.705 49.264 149.857 49.264C148.297 49.264 146.593 48.496 145.345 47.32L143.305 49.768C145.033 51.424 147.385 52.336 149.785 52.336ZM163.198 52.336C164.398 52.336 165.334 52.072 166.054 51.832L165.478 49.264C165.094 49.408 164.59 49.576 164.134 49.576C162.958 49.576 162.31 48.856 162.31 47.32V41.344H165.646V38.584H162.31V34.936H159.382L158.998 38.584L156.91 38.728V41.344H158.782V47.32C158.782 50.32 160.006 52.336 163.198 52.336ZM173.434 52.336C176.794 52.336 179.866 49.744 179.866 45.304C179.866 40.84 176.794 38.248 173.434 38.248C170.05 38.248 166.978 40.84 166.978 45.304C166.978 49.744 170.05 52.336 173.434 52.336ZM173.434 49.48C171.586 49.48 170.578 47.824 170.578 45.304C170.578 42.76 171.586 41.128 173.434 41.128C175.258 41.128 176.266 42.76 176.266 45.304C176.266 47.824 175.258 49.48 173.434 49.48ZM188.529 52.336C190.017 52.336 191.673 51.832 192.945 50.728L191.553 48.4C190.809 49 189.897 49.48 188.913 49.48C186.993 49.48 185.601 47.824 185.601 45.304C185.601 42.76 186.969 41.128 189.057 41.128C189.777 41.128 190.425 41.416 191.097 41.992L192.753 39.736C191.769 38.872 190.521 38.248 188.841 38.248C185.193 38.248 182.001 40.84 182.001 45.304C182.001 49.744 184.833 52.336 188.529 52.336ZM195.498 52H198.954V48.616L200.85 46.432L204.114 52H207.93L202.914 44.104L207.522 38.584H203.634L199.074 44.344H198.954V32.872H195.498V52ZM215.323 42.88V45.424H217.147C221.371 45.424 224.059 45.352 227.083 44.872L226.843 42.328C223.891 42.808 221.299 42.88 217.147 42.88H215.323ZM215.299 33.376V35.92H222.187V38.104H215.323V44.536H218.491V40.504H225.331V33.376H215.299ZM229.891 31.936V48.28H233.083V31.936H229.891ZM218.299 51.208V53.752H233.635V51.208H218.299ZM218.299 46.984V52.024H221.491V46.984H218.299ZM226.411 37.24V39.928H230.515V37.24H226.411ZM241.986 35.656V36.472C241.986 38.992 240.402 41.584 236.754 42.616L238.242 45.088C242.562 43.888 244.602 40.384 244.602 36.472V35.656H241.986ZM242.586 35.656V36.472C242.586 40.192 244.674 43.504 248.994 44.632L250.434 42.136C246.81 41.2 245.178 38.8 245.178 36.472V35.656H242.586ZM237.498 34.24V36.736H249.642V34.24H237.498ZM241.986 31.96V35.344H245.178V31.96H241.986ZM251.826 31.936V45.304H255.042V31.936H251.826ZM247.506 45.688C242.802 45.688 239.922 47.248 239.922 49.912C239.922 52.6 242.802 54.136 247.506 54.136C252.21 54.136 255.138 52.6 255.138 49.912C255.138 47.248 252.21 45.688 247.506 45.688ZM247.506 48.136C250.41 48.136 251.946 48.712 251.946 49.912C251.946 51.136 250.41 51.712 247.506 51.712C244.626 51.712 243.114 51.136 243.114 49.912C243.114 48.712 244.626 48.136 247.506 48.136ZM280.678 31.912V54.136H283.894V31.912H280.678ZM274.126 34.216V34.792C274.126 40.744 271.822 44.776 265.438 47.848L267.094 50.392C274.99 46.576 277.294 41.008 277.294 34.216H274.126ZM266.614 34.216V36.736H275.638V34.216H266.614ZM288.74 32.872V42.28H291.908V32.872H288.74ZM288.74 41.824V44.392H290.468C293.828 44.392 296.636 44.296 299.756 43.72L299.396 41.2C296.396 41.704 293.708 41.824 290.468 41.824H288.74ZM302.852 31.912V44.896H306.044V31.912H302.852ZM297.572 33.88V36.304H303.644V33.88H297.572ZM297.572 37.792V40.192H303.644V37.792H297.572ZM291.332 45.832V53.896H306.044V45.832H291.332ZM302.9 48.328V51.376H294.476V48.328H302.9ZM327.601 35.152V37.696H333.073V35.152H327.601ZM331.657 31.912V43.192H334.849V31.912H331.657ZM320.161 44.128V46.576H331.681V47.8H320.209V52.888H323.353V50.104H334.849V44.128H320.161ZM320.209 51.424V53.896H335.473V51.424H320.209ZM321.337 32.632V34.216C321.337 37.048 319.777 39.76 316.081 40.864L317.713 43.384C321.961 42.04 323.929 38.416 323.929 34.216V32.632H321.337ZM321.961 32.632V34.216C321.961 38.2 323.857 41.632 327.913 42.952L329.545 40.48C326.041 39.424 324.553 36.856 324.553 34.216V32.632H321.961ZM338.327 42.88V45.424H358.439V42.88H338.327ZM347.039 44.488V49.168H350.255V44.488H347.039ZM340.799 32.848V41.104H355.895V32.848H340.799ZM352.751 35.344V38.608H343.919V35.344H352.751ZM340.655 51.208V53.752H356.231V51.208H340.655ZM340.655 47.296V52.048H343.823V47.296H340.655ZM360.429 48.976V51.568H380.541V48.976H360.429ZM368.877 44.056V49.696H372.069V44.056H368.877ZM368.781 34.816V35.608C368.781 38.68 366.141 41.752 361.197 42.52L362.445 45.04C368.109 44.008 371.469 40.288 371.469 35.608V34.816H368.781ZM369.429 34.816V35.608C369.429 40.288 372.837 43.912 378.597 44.92L379.821 42.4C374.757 41.656 372.117 38.68 372.117 35.608V34.816H369.429ZM362.085 33.592V36.136H378.813V33.592H362.085ZM387.475 33.616V36.856C387.475 40.984 385.771 45.256 382.027 47.008L383.947 49.576C388.147 47.512 390.067 42.352 390.067 36.856V33.616H387.475ZM388.123 33.616V36.856C388.123 42.184 389.875 47.128 393.883 49.168L395.803 46.624C392.251 44.896 390.667 40.84 390.667 36.856V33.616H388.123ZM396.691 31.912V54.136H399.907V31.912H396.691ZM399.187 40.456V43.12H403.123V40.456H399.187ZM416.688 34.384V36.256C416.688 39.064 415.08 41.944 411.384 43.144L413.016 45.64C417.288 44.248 419.328 40.456 419.328 36.256V34.384H416.688ZM417.336 34.384V36.256C417.336 40.288 419.352 43.912 423.528 45.232L425.16 42.76C421.536 41.608 419.952 38.896 419.952 36.256V34.384H417.336ZM412.224 33.496V36.016H424.32V33.496H412.224ZM426.552 31.936V47.968H429.768V31.936H426.552ZM414.96 51.208V53.752H430.32V51.208H414.96ZM414.96 46.528V52.48H418.152V46.528H414.96ZM449.278 31.912V45.832H452.302V31.912H449.278ZM446.566 37.384V39.976H450.118V37.384H446.566ZM444.67 32.344V45.112H447.646V32.344H444.67ZM433.27 34.192V36.64H444.046V34.192H433.27ZM438.694 37.36C435.91 37.36 433.894 38.944 433.894 41.248C433.894 43.552 435.91 45.112 438.694 45.112C441.478 45.112 443.494 43.552 443.494 41.248C443.494 38.944 441.478 37.36 438.694 37.36ZM438.694 39.64C439.846 39.64 440.638 40.216 440.638 41.248C440.638 42.28 439.846 42.856 438.694 42.856C437.518 42.856 436.726 42.28 436.726 41.248C436.726 40.216 437.518 39.64 438.694 39.64ZM437.086 32.128V35.872H440.23V32.128H437.086ZM444.79 46.072C440.014 46.072 437.134 47.512 437.134 50.104C437.134 52.672 440.014 54.136 444.79 54.136C449.542 54.136 452.422 52.672 452.422 50.104C452.422 47.512 449.542 46.072 444.79 46.072ZM444.79 48.448C447.742 48.448 449.23 48.952 449.23 50.104C449.23 51.232 447.742 51.76 444.79 51.76C441.814 51.76 440.326 51.232 440.326 50.104C440.326 48.952 441.814 48.448 444.79 48.448ZM463.892 43.072V46.984H467.084V43.072H463.892ZM455.444 42.016V44.536H475.532V42.016H455.444ZM465.452 46.12C460.628 46.12 457.724 47.56 457.724 50.128C457.724 52.696 460.628 54.136 465.452 54.136C470.252 54.136 473.156 52.696 473.156 50.128C473.156 47.56 470.252 46.12 465.452 46.12ZM465.452 48.52C468.428 48.52 469.94 49.024 469.94 50.128C469.94 51.208 468.428 51.736 465.452 51.736C462.476 51.736 460.964 51.208 460.964 50.128C460.964 49.024 462.476 48.52 465.452 48.52ZM463.292 34V34.552C463.292 36.28 461.156 38.248 456.284 38.656L457.388 41.152C463.124 40.624 466.124 37.888 466.124 34.552V34H463.292ZM464.852 34V34.552C464.852 37.912 467.876 40.624 473.588 41.152L474.692 38.656C469.796 38.248 467.684 36.304 467.684 34.552V34H464.852ZM457.268 32.824V35.344H473.732V32.824H457.268ZM479.851 45.952H482.155L482.659 37.096L482.755 33.76H479.227L479.323 37.096L479.851 45.952ZM480.979 52.336C482.251 52.336 483.187 51.352 483.187 50.032C483.187 48.712 482.251 47.752 480.979 47.752C479.73 47.752 478.795 48.712 478.795 50.032C478.795 51.352 479.73 52.336 480.979 52.336Z" fill="black"/>
<g filter="url(#filter0_d_3191_1098)">
<rect x="837.101" y="20" width="44.3547" height="53.5952" rx="8.46269" fill="url(#paint0_linear_3191_1098)"/>
<g filter="url(#filter1_d_3191_1098)">
<rect x="819.544" y="29.2406" width="52.6712" height="63.7598" rx="8.46269" fill="url(#paint1_linear_3191_1098)" shape-rendering="crispEdges"/>
</g>
<path d="M828.322 45.4115H864.36" stroke="white" stroke-width="3.29104" stroke-linecap="round"/>
<path d="M828.322 53.2661H864.36" stroke="white" stroke-width="3.29104" stroke-linecap="round"/>
<path d="M828.322 61.5825H864.36" stroke="white" stroke-width="3.29104" stroke-linecap="round"/>
<path d="M828.784 69.899H844.493" stroke="white" stroke-width="3.29104" stroke-linecap="round"/>
</g>
<defs>
<filter id="filter0_d_3191_1098" x="814.842" y="17.1791" width="75.0759" height="86.1647" filterUnits="userSpaceOnUse" color-interpolation-filters="sRGB">
<feFlood flood-opacity="0" result="BackgroundImageFix"/>
<feColorMatrix in="SourceAlpha" type="matrix" values="0 0 0 0 0 0 0 0 0 0 0 0 0 0 0 0 0 0 127 0" result="hardAlpha"/>
<feOffset dx="1.8806" dy="3.76119"/>
<feGaussianBlur stdDeviation="3.29104"/>
<feComposite in2="hardAlpha" operator="out"/>
<feColorMatrix type="matrix" values="0 0 0 0 0 0 0 0 0 0.34 0 0 0 0 1 0 0 0 0.6 0"/>
<feBlend mode="normal" in2="BackgroundImageFix" result="effect1_dropShadow_3191_1098"/>
<feBlend mode="normal" in="SourceGraphic" in2="effect1_dropShadow_3191_1098" result="shape"/>
</filter>
<filter id="filter1_d_3191_1098" x="816.723" y="20.7779" width="65.8353" height="76.9241" filterUnits="userSpaceOnUse" color-interpolation-filters="sRGB">
<feFlood flood-opacity="0" result="BackgroundImageFix"/>
<feColorMatrix in="SourceAlpha" type="matrix" values="0 0 0 0 0 0 0 0 0 0 0 0 0 0 0 0 0 0 127 0" result="hardAlpha"/>
<feOffset dx="3.76119" dy="-1.8806"/>
<feGaussianBlur stdDeviation="3.29104"/>
<feComposite in2="hardAlpha" operator="out"/>
<feColorMatrix type="matrix" values="0 0 0 0 0 0 0 0 0 0.341176 0 0 0 0 1 0 0 0 0.46 0"/>
<feBlend mode="normal" in2="BackgroundImageFix" result="effect1_dropShadow_3191_1098"/>
<feBlend mode="normal" in="SourceGraphic" in2="effect1_dropShadow_3191_1098" result="shape"/>
</filter>
<linearGradient id="paint0_linear_3191_1098" x1="837.101" y1="73.5952" x2="874.743" y2="12.9481" gradientUnits="userSpaceOnUse">
<stop stop-color="#3C90FF"/>
<stop offset="1" stop-color="#4CBCFF" stop-opacity="0.5"/>
</linearGradient>
<linearGradient id="paint1_linear_3191_1098" x1="819.544" y1="93.0004" x2="864.361" y2="20.9241" gradientUnits="userSpaceOnUse">
<stop stop-color="#60ADFA"/>
<stop offset="1" stop-color="#8CC3FA" stop-opacity="0"/>
</linearGradient>
</defs>
</svg>
