<svg width="931" height="115" viewBox="0 0 931 115" fill="none" xmlns="http://www.w3.org/2000/svg">
<rect width="931" height="115" rx="12" fill="#C8F5EF"/>
<path d="M58.184 53H64.52C68.408 53 71.384 51.344 71.384 47.768C71.384 45.392 69.968 44.024 68.072 43.568V43.472C69.584 42.92 70.472 41.264 70.472 39.632C70.472 36.32 67.688 35.24 64.04 35.24H58.184V53ZM61.736 42.464V37.976H63.848C65.984 37.976 67.016 38.576 67.016 40.136C67.016 41.576 66.056 42.464 63.8 42.464H61.736ZM61.736 50.264V45.104H64.208C66.656 45.104 67.928 45.848 67.928 47.576C67.928 49.4 66.608 50.264 64.208 50.264H61.736ZM77.5199 53.336C79.0559 53.336 80.3999 52.592 81.5759 51.584H81.6719L81.9359 53H84.8159V45.176C84.8159 41.264 83.0639 39.248 79.6559 39.248C77.5199 39.248 75.6239 40.04 74.0399 41L75.3119 43.352C76.5359 42.608 77.7599 42.08 79.0079 42.08C80.6639 42.08 81.2159 43.064 81.2879 44.384C75.8879 44.984 73.5599 46.496 73.5599 49.352C73.5599 51.656 75.1199 53.336 77.5199 53.336ZM78.6719 50.576C77.6399 50.576 76.9199 50.12 76.9199 49.088C76.9199 47.864 77.9999 46.976 81.2879 46.568V49.28C80.4239 50.12 79.6799 50.576 78.6719 50.576ZM94.0996 53.336C95.5876 53.336 97.2436 52.832 98.5156 51.728L97.1236 49.4C96.3796 50 95.4676 50.48 94.4836 50.48C92.5636 50.48 91.1716 48.824 91.1716 46.304C91.1716 43.76 92.5396 42.128 94.6276 42.128C95.3476 42.128 95.9956 42.416 96.6676 42.992L98.3236 40.736C97.3396 39.872 96.0916 39.248 94.4116 39.248C90.7636 39.248 87.5716 41.84 87.5716 46.304C87.5716 50.744 90.4036 53.336 94.0996 53.336ZM101.068 53H104.524V49.616L106.42 47.432L109.684 53H113.5L108.484 45.104L113.092 39.584H109.204L104.644 45.344H104.524V33.872H101.068V53ZM125.598 53.336C128.43 53.336 130.638 52.136 132.246 50.336C134.142 48.2 135.414 45.776 136.206 43.088H132.99C132.366 45.416 131.238 47.312 129.846 48.752C128.67 49.904 127.35 50.624 126.03 50.624C124.35 50.624 123.174 49.616 123.174 48.08C123.174 44.672 130.782 43.472 130.782 38.792C130.782 36.464 129.198 34.928 126.654 34.928C123.846 34.928 122.022 36.944 122.022 39.416C122.022 43.04 125.886 47.936 130.182 50.936C131.982 52.136 133.806 53 135.486 53.336L136.35 50.48C135.174 50.24 133.758 49.592 132.318 48.656C128.742 46.376 124.95 42.368 124.95 39.416C124.95 38.12 125.694 37.256 126.726 37.256C127.638 37.256 128.07 37.928 128.07 38.816C128.07 42.368 119.814 42.656 119.814 48.296C119.814 51.056 121.902 53.336 125.598 53.336ZM149.785 53.336C153.865 53.336 156.289 50.864 156.289 47.96C156.289 45.416 154.873 44.024 152.737 43.136L150.409 42.176C148.897 41.576 147.625 41.096 147.625 39.824C147.625 38.672 148.609 37.976 150.169 37.976C151.633 37.976 152.809 38.504 153.961 39.44L155.737 37.208C154.297 35.744 152.233 34.928 150.169 34.928C146.593 34.928 144.025 37.16 144.025 40.064C144.025 42.632 145.849 44.096 147.625 44.816L150.001 45.824C151.585 46.496 152.665 46.928 152.665 48.248C152.665 49.472 151.705 50.264 149.857 50.264C148.297 50.264 146.593 49.496 145.345 48.32L143.305 50.768C145.033 52.424 147.385 53.336 149.785 53.336ZM163.198 53.336C164.398 53.336 165.334 53.072 166.054 52.832L165.478 50.264C165.094 50.408 164.59 50.576 164.134 50.576C162.958 50.576 162.31 49.856 162.31 48.32V42.344H165.646V39.584H162.31V35.936H159.382L158.998 39.584L156.91 39.728V42.344H158.782V48.32C158.782 51.32 160.006 53.336 163.198 53.336ZM173.434 53.336C176.794 53.336 179.866 50.744 179.866 46.304C179.866 41.84 176.794 39.248 173.434 39.248C170.05 39.248 166.978 41.84 166.978 46.304C166.978 50.744 170.05 53.336 173.434 53.336ZM173.434 50.48C171.586 50.48 170.578 48.824 170.578 46.304C170.578 43.76 171.586 42.128 173.434 42.128C175.258 42.128 176.266 43.76 176.266 46.304C176.266 48.824 175.258 50.48 173.434 50.48ZM188.529 53.336C190.017 53.336 191.673 52.832 192.945 51.728L191.553 49.4C190.809 50 189.897 50.48 188.913 50.48C186.993 50.48 185.601 48.824 185.601 46.304C185.601 43.76 186.969 42.128 189.057 42.128C189.777 42.128 190.425 42.416 191.097 42.992L192.753 40.736C191.769 39.872 190.521 39.248 188.841 39.248C185.193 39.248 182.001 41.84 182.001 46.304C182.001 50.744 184.833 53.336 188.529 53.336ZM195.498 53H198.954V49.616L200.85 47.432L204.114 53H207.93L202.914 45.104L207.522 39.584H203.634L199.074 45.344H198.954V33.872H195.498V53ZM216.198 34.376C212.718 34.376 210.054 36.656 210.054 39.848C210.054 43.064 212.718 45.344 216.198 45.344C219.702 45.344 222.318 43.064 222.318 39.848C222.318 36.656 219.702 34.376 216.198 34.376ZM216.198 37.112C217.902 37.112 219.198 38.12 219.198 39.848C219.198 41.6 217.902 42.608 216.198 42.608C214.494 42.608 213.198 41.6 213.198 39.848C213.198 38.12 214.494 37.112 216.198 37.112ZM224.406 32.888V55.184H227.598V32.888H224.406ZM209.526 50.672C213.366 50.672 218.598 50.624 223.422 49.664L223.182 47.36C218.502 48.056 213.054 48.104 209.142 48.104L209.526 50.672ZM246.275 44.432V47.96H249.467V44.432H246.275ZM240.179 47.312V54.896H255.539V47.312H240.179ZM252.419 49.832V52.376H243.323V49.832H252.419ZM237.851 42.776V45.32H257.939V42.776H237.851ZM246.275 33.152V33.824C246.275 36.128 243.827 38.624 238.835 39.224L239.963 41.696C245.699 40.952 249.011 37.736 249.011 33.824V33.152H246.275ZM246.803 33.152V33.824C246.803 37.712 250.091 40.952 255.827 41.696L256.955 39.224C251.987 38.624 249.539 36.104 249.539 33.824V33.152H246.803ZM259.929 44.24V46.784H280.017V44.24H259.929ZM262.353 52.208V54.752H277.761V52.208H262.353ZM262.353 48.272V53.024H265.545V48.272H262.353ZM269.985 33.56C265.137 33.56 261.945 35.312 261.945 38.144C261.945 40.976 265.137 42.728 269.985 42.728C274.809 42.728 278.025 40.976 278.025 38.144C278.025 35.312 274.809 33.56 269.985 33.56ZM269.985 36.104C272.985 36.104 274.737 36.8 274.737 38.144C274.737 39.512 272.985 40.184 269.985 40.184C266.985 40.184 265.233 39.512 265.233 38.144C265.233 36.8 266.985 36.104 269.985 36.104ZM304.213 32.888V55.184H307.381V32.888H304.213ZM299.173 40.712V43.28H305.125V40.712H299.173ZM289.549 34.64V49.952H300.229V34.64H297.085V40.016H292.717V34.64H289.549ZM292.717 42.488H297.085V47.384H292.717V42.488ZM312.876 34.952V37.472H326.964V34.952H312.876ZM310.836 49.64V52.232H330.924V49.64H310.836ZM325.284 34.952V37.592C325.284 40.592 325.284 43.76 324.468 48.032L327.66 48.296C328.452 43.736 328.452 40.712 328.452 37.592V34.952H325.284ZM332.89 42.872V45.2H353.026V42.872H332.89ZM335.146 46.304V48.464H347.482V49.568H335.194V53.48H338.362V51.584H350.626V46.304H335.146ZM335.194 52.808V54.968H351.25V52.808H335.194ZM335.362 33.296V35.432H347.434V36.536H335.386V40.352H338.554V38.528H350.578V33.296H335.362ZM335.386 39.68V41.84H350.986V39.68H335.386ZM377.75 32.912V55.136H380.774V32.912H377.75ZM370.43 40.496V43.088H374.102V40.496H370.43ZM373.262 33.272V54.128H376.238V33.272H373.262ZM365.63 36.536V38.816C365.63 42.608 364.502 46.592 361.238 48.632L363.134 50.984C366.662 48.776 368.03 43.808 368.03 38.816V36.536H365.63ZM366.35 36.536V38.816C366.35 43.712 367.646 48.368 371.174 50.456L373.046 48.128C369.83 46.256 368.726 42.512 368.726 38.816V36.536H366.35ZM362.078 35.144V37.712H371.99V35.144H362.078ZM383.797 49.976V52.568H403.909V49.976H383.797ZM392.221 45.224V50.6H395.413V45.224H392.221ZM385.909 34.328V45.896H401.725V34.328H398.557V37.736H389.077V34.328H385.909ZM389.077 40.232H398.557V43.352H389.077V40.232ZM405.827 36.248V38.792H416.459V36.248H405.827ZM411.179 39.776C408.371 39.776 406.307 41.96 406.307 45.08C406.307 48.176 408.371 50.36 411.179 50.36C414.011 50.36 416.051 48.176 416.051 45.08C416.051 41.96 414.011 39.776 411.179 39.776ZM411.179 42.44C412.379 42.44 413.243 43.4 413.243 45.08C413.243 46.76 412.379 47.696 411.179 47.696C409.979 47.696 409.139 46.76 409.139 45.08C409.139 43.4 409.979 42.44 411.179 42.44ZM421.907 32.912V55.136H424.955V32.912H421.907ZM419.243 41.936V44.504H422.915V41.936H419.243ZM417.251 33.32V54.2H420.227V33.32H417.251ZM409.619 33.512V37.856H412.763V33.512H409.619ZM436.161 35.384V36.032C436.161 38.312 433.809 40.808 428.913 41.408L430.089 43.904C435.729 43.136 438.921 39.944 438.921 36.032V35.384H436.161ZM437.073 35.384V36.032C437.073 39.944 440.265 43.136 445.929 43.904L447.081 41.408C442.185 40.808 439.833 38.312 439.833 36.032V35.384H437.073ZM436.329 47V55.16H439.497V47H436.329ZM427.953 45.176V47.72H448.041V45.176H427.953ZM429.729 34.04V36.56H446.217V34.04H429.729ZM458.767 40.376V42.968H462.439V40.376H458.767ZM454.015 34.832V38.576C454.015 42.344 452.863 46.304 449.599 48.32L451.519 50.72C455.071 48.536 456.463 43.616 456.463 38.576V34.832H454.015ZM454.711 34.832V38.432C454.711 43.232 455.815 48.032 459.343 50.216L461.071 47.72C458.047 45.752 457.111 42.056 457.111 38.432V34.832H454.711ZM466.063 32.912V55.136H469.111V32.912H466.063ZM461.551 33.248V54.128H464.527V33.248H461.551ZM476.525 44.192V50.432H479.693V44.192H476.525ZM484.589 44.192V50.432H487.781V44.192H484.589ZM472.109 49.976V52.568H492.221V49.976H472.109ZM482.141 33.992C477.341 33.992 473.837 36.344 473.837 39.968C473.837 43.592 477.341 45.92 482.141 45.92C486.917 45.92 490.445 43.592 490.445 39.968C490.445 36.344 486.917 33.992 482.141 33.992ZM482.141 36.488C485.237 36.488 487.301 37.76 487.301 39.968C487.301 42.152 485.237 43.448 482.141 43.448C479.045 43.448 476.981 42.152 476.981 39.968C476.981 37.76 479.045 36.488 482.141 36.488ZM496.491 46.952H498.795L499.299 38.096L499.395 34.76H495.867L495.963 38.096L496.491 46.952ZM497.619 53.336C498.891 53.336 499.827 52.352 499.827 51.032C499.827 49.712 498.891 48.752 497.619 48.752C496.371 48.752 495.435 49.712 495.435 51.032C495.435 52.352 496.371 53.336 497.619 53.336Z" fill="black"/>
<path d="M63.308 76.312V80.254H65.18V76.312H63.308ZM64.244 68.014C60.77 68.014 58.196 69.76 58.196 72.424C58.196 75.106 60.77 76.834 64.244 76.834C67.736 76.834 70.292 75.106 70.292 72.424C70.292 69.76 67.736 68.014 64.244 68.014ZM64.244 69.508C66.71 69.508 68.456 70.642 68.456 72.424C68.456 74.224 66.71 75.34 64.244 75.34C61.796 75.34 60.032 74.224 60.032 72.424C60.032 70.642 61.796 69.508 64.244 69.508ZM56.828 79.93V81.478H71.732V79.93H56.828ZM73.3686 76.78V78.274H88.2726V76.78H73.3686ZM77.0406 77.572V83.494H78.9306V77.572H77.0406ZM82.7106 77.572V83.494H84.6006V77.572H82.7106ZM75.1146 67.618V69.13H84.6006V70.696H75.1506V74.818H77.0586V72.118H86.5086V67.618H75.1146ZM75.1506 73.81V75.322H86.8866V73.81H75.1506ZM89.9272 74.566V75.97H104.831V74.566H89.9272ZM91.6552 77.068V78.382H101.159V79.516H91.6912V82.45H93.5632V80.758H103.013V77.068H91.6552ZM91.6912 82V83.314H103.517V82H91.6912ZM91.7992 67.438V68.734H101.105V69.832H91.8172V72.64H93.6892V71.056H102.959V67.438H91.7992ZM91.8172 72.226V73.54H103.265V72.226H91.8172ZM122.769 67.042V83.494H124.569V67.042H122.769ZM117.027 72.82V74.368H119.997V72.82H117.027ZM119.457 67.366V82.684H121.221V67.366H119.457ZM113.697 69.652V71.56C113.697 74.494 112.617 77.464 110.277 78.904L111.411 80.308C113.913 78.724 115.137 75.196 115.137 71.56V69.652H113.697ZM114.111 69.652V71.56C114.111 75.088 115.263 78.418 117.765 79.912L118.881 78.526C116.577 77.176 115.533 74.368 115.533 71.56V69.652H114.111ZM110.799 68.842V70.372H118.233V68.842H110.799ZM127.105 79.93V81.478H142.009V79.93H127.105ZM133.585 76.186V80.344H135.457V76.186H133.585ZM128.761 68.158V76.636H140.281V68.158H138.409V70.912H130.651V68.158H128.761ZM130.651 72.406H138.409V75.106H130.651V72.406ZM143.628 69.706V71.218H151.656V69.706H143.628ZM147.66 72.154C145.608 72.154 144.096 73.738 144.096 75.988C144.096 78.238 145.608 79.804 147.66 79.804C149.73 79.804 151.224 78.238 151.224 75.988C151.224 73.738 149.73 72.154 147.66 72.154ZM147.66 73.738C148.758 73.738 149.55 74.638 149.55 75.988C149.55 77.356 148.758 78.22 147.66 78.22C146.562 78.22 145.77 77.356 145.77 75.988C145.77 74.638 146.562 73.738 147.66 73.738ZM155.868 67.042V83.494H157.668V67.042H155.868ZM153.528 73.864V75.394H156.462V73.864H153.528ZM152.376 67.384V82.738H154.14V67.384H152.376ZM146.742 67.51V70.642H148.596V67.51H146.742ZM170.62 68.752V69.364C170.62 71.308 168.28 73.18 165.058 73.612L165.778 75.088C169.468 74.53 172.258 72.28 172.258 69.364V68.752H170.62ZM171.142 68.752V69.364C171.142 72.28 173.914 74.53 177.622 75.088L178.324 73.612C175.12 73.18 172.762 71.308 172.762 69.364V68.752H171.142ZM170.71 77.338V83.494H172.582V77.338H170.71ZM164.266 76.276V77.806H179.134V76.276H164.266ZM165.616 67.978V69.49H177.73V67.978H165.616ZM185 68.392V71.092C185 74.242 183.308 77.41 180.68 78.598L181.814 80.164C184.766 78.724 186.548 75.07 186.548 71.092V68.392H185ZM185.36 68.392V71.092C185.36 74.926 187.142 78.436 190.04 79.804L191.156 78.292C188.564 77.14 186.89 74.116 186.89 71.092V68.392H185.36ZM192.47 67.024V83.512H194.36V67.024H192.47ZM205.285 69.796V71.326H209.677V69.796H205.285ZM205.285 73.324V74.854H209.731V73.324H205.285ZM198.085 68.428V76.276H205.717V68.428H198.085ZM203.863 69.922V74.782H199.939V69.922H203.863ZM209.119 67.06V79.048H211.009V67.06H209.119ZM200.299 81.64V83.17H211.387V81.64H200.299ZM200.299 77.95V82.396H202.189V77.95H200.299ZM224.464 77.536V83.512H226.336V77.536H224.464ZM217.984 76.942V78.49H232.852V76.942H217.984ZM224.446 69.922V70.336C224.446 72.154 222.124 73.972 218.83 74.386L219.496 75.88C223.33 75.358 226.102 73.126 226.102 70.336V69.922H224.446ZM224.698 69.922V70.336C224.698 73.072 227.452 75.376 231.286 75.88L231.952 74.386C228.676 73.972 226.336 72.118 226.336 70.336V69.922H224.698ZM219.37 69.004V70.516H231.448V69.004H219.37ZM224.464 67.06V69.526H226.336V67.06H224.464ZM238.449 69.868V70.534C238.449 72.55 237.009 74.404 234.471 75.142L235.371 76.618C238.305 75.718 239.979 73.342 239.979 70.534V69.868H238.449ZM238.791 69.868V70.534C238.791 73.234 240.519 75.502 243.471 76.33L244.335 74.854C241.797 74.152 240.339 72.424 240.339 70.534V69.868H238.791ZM234.993 68.842V70.336H243.795V68.842H234.993ZM238.449 66.97V69.472H240.339V66.97H238.449ZM243.363 71.506V73.036H246.783V71.506H243.363ZM246.279 67.042V76.726H248.169V67.042H246.279ZM237.369 77.518V83.296H248.169V77.518H237.369ZM246.315 79.012V81.784H239.223V79.012H246.315ZM258.517 67.294C254.827 67.294 252.667 68.302 252.667 70.138C252.667 71.956 254.827 72.964 258.517 72.964C262.207 72.964 264.385 71.956 264.385 70.138C264.385 68.302 262.207 67.294 258.517 67.294ZM258.517 68.698C261.073 68.698 262.423 69.202 262.423 70.138C262.423 71.074 261.073 71.56 258.517 71.56C255.979 71.56 254.611 71.074 254.611 70.138C254.611 69.202 255.979 68.698 258.517 68.698ZM251.083 73.918V75.412H265.951V73.918H251.083ZM252.847 76.618V78.022H262.243V79.21H252.865V82.306H254.737V80.542H264.097V76.618H252.847ZM252.865 81.892V83.35H264.565V81.892H252.865ZM271.685 75.646V77.14H286.553V75.646H271.685ZM278.165 73.684V76.24H280.037V73.684H278.165ZM273.593 72.856V74.296H284.879V72.856H273.593ZM273.593 67.492V73.666H275.465V68.95H284.771V67.492H273.593ZM274.925 70.174V71.578H284.375V70.174H274.925ZM279.101 78.148C275.501 78.148 273.431 79.084 273.431 80.812C273.431 82.54 275.501 83.476 279.101 83.476C282.701 83.476 284.771 82.54 284.771 80.812C284.771 79.084 282.701 78.148 279.101 78.148ZM279.101 79.552C281.585 79.552 282.881 79.984 282.881 80.812C282.881 81.658 281.585 82.072 279.101 82.072C276.617 82.072 275.321 81.658 275.321 80.812C275.321 79.984 276.617 79.552 279.101 79.552ZM288.226 69.706V71.218H296.254V69.706H288.226ZM292.258 72.154C290.206 72.154 288.694 73.738 288.694 75.988C288.694 78.238 290.206 79.804 292.258 79.804C294.328 79.804 295.822 78.238 295.822 75.988C295.822 73.738 294.328 72.154 292.258 72.154ZM292.258 73.738C293.356 73.738 294.148 74.638 294.148 75.988C294.148 77.356 293.356 78.22 292.258 78.22C291.16 78.22 290.368 77.356 290.368 75.988C290.368 74.638 291.16 73.738 292.258 73.738ZM300.466 67.042V83.494H302.266V67.042H300.466ZM298.126 73.864V75.394H301.06V73.864H298.126ZM296.974 67.384V82.738H298.738V67.384H296.974ZM291.34 67.51V70.642H293.194V67.51H291.34ZM315.235 68.086V69.328C315.235 71.92 312.607 74.476 309.349 75.07L310.177 76.636C313.885 75.844 316.873 72.892 316.873 69.328V68.086H315.235ZM315.595 68.086V69.328C315.595 72.928 318.583 75.844 322.291 76.636L323.119 75.07C319.861 74.476 317.233 71.956 317.233 69.328V68.086H315.595ZM308.863 79.822V81.37H323.767V79.822H308.863ZM326.088 78.094V79.642H327.42C330.39 79.642 332.568 79.57 335.088 79.138L334.908 77.626C332.442 78.04 330.336 78.094 327.42 78.094H326.088ZM326.088 68.482V78.616H327.978V70.03H333.774V68.482H326.088ZM327.51 73.072V74.566H333.468V73.072H327.51ZM336.276 67.042V83.494H338.166V67.042H336.276ZM337.734 73.486V75.052H340.722V73.486H337.734ZM349.846 71.2V72.748H354.202V71.2H349.846ZM342.718 68.014V76.006H350.314V68.014H348.46V70.516H344.59V68.014H342.718ZM344.59 72.01H348.46V74.476H344.59V72.01ZM344.518 77.644V79.174H353.716V83.494H355.606V77.644H344.518ZM353.716 67.042V76.834H355.606V67.042H353.716ZM364.911 68.086V69.328C364.911 71.92 362.283 74.476 359.025 75.07L359.853 76.636C363.561 75.844 366.549 72.892 366.549 69.328V68.086H364.911ZM365.271 68.086V69.328C365.271 72.928 368.259 75.844 371.967 76.636L372.795 75.07C369.537 74.476 366.909 71.956 366.909 69.328V68.086H365.271ZM358.539 79.822V81.37H373.443V79.822H358.539ZM390.823 67.042V83.494H392.713V67.042H390.823ZM385.999 68.788V69.112C385.999 73.504 384.001 76.762 379.267 79.048L380.257 80.56C385.909 77.806 387.853 73.666 387.853 68.788H385.999ZM380.077 68.788V70.3H386.845V68.788H380.077ZM395.699 79.912V81.478H410.603V79.912H395.699ZM396.923 68.59V70.12H409.271V68.59H396.923ZM396.977 75.466V76.996H409.235V75.466H396.977ZM399.335 69.994V75.628H401.225V69.994H399.335ZM404.987 69.994V75.628H406.859V69.994H404.987ZM413.212 78.094V79.642H414.58C417.622 79.642 419.872 79.57 422.446 79.138L422.266 77.626C419.746 78.022 417.568 78.094 414.58 78.094H413.212ZM413.212 68.482V78.616H415.084V70.03H421.348V68.482H413.212ZM414.652 73.072V74.566H420.7V73.072H414.652ZM423.94 67.042V83.494H425.83V67.042H423.94ZM430.526 67.762V69.274H441.038V67.762H430.526ZM440.03 67.762V69.22C440.03 70.768 440.03 72.352 439.58 74.512L441.434 74.656C441.902 72.442 441.902 70.786 441.902 69.22V67.762H440.03ZM440.588 70.786L430.112 71.056L430.364 72.64L440.588 72.172V70.786ZM428.834 75.628V77.14H443.648V75.628H428.834ZM434.612 73.414V76.6H436.502V73.414H434.612ZM430.634 81.712V83.242H442.208V81.712H430.634ZM430.634 78.382V82.378H432.524V78.382H430.634ZM452.791 67.294C449.101 67.294 446.941 68.302 446.941 70.138C446.941 71.956 449.101 72.964 452.791 72.964C456.481 72.964 458.659 71.956 458.659 70.138C458.659 68.302 456.481 67.294 452.791 67.294ZM452.791 68.698C455.347 68.698 456.697 69.202 456.697 70.138C456.697 71.074 455.347 71.56 452.791 71.56C450.253 71.56 448.885 71.074 448.885 70.138C448.885 69.202 450.253 68.698 452.791 68.698ZM445.357 73.918V75.412H460.225V73.918H445.357ZM447.121 76.618V78.022H456.517V79.21H447.139V82.306H449.011V80.542H458.371V76.618H447.121ZM447.139 81.892V83.35H458.839V81.892H447.139ZM467.794 74.8V76.312H479.206V74.8H467.794ZM465.976 79.822V81.37H480.88V79.822H465.976ZM467.794 68.482V75.448H469.666V70.03H479.062V68.482H467.794ZM494.199 67.042V76.15H496.089V67.042H494.199ZM483.381 74.296V75.826H484.749C487.899 75.826 490.113 75.754 492.705 75.34L492.489 73.81C489.969 74.224 487.827 74.296 484.749 74.296H483.381ZM483.345 67.816V69.328H488.997V71.038H483.381V75.304H485.217V72.478H490.851V67.816H483.345ZM485.325 76.906V83.296H496.089V76.906H494.217V78.598H487.179V76.906H485.325ZM487.179 80.056H494.217V81.766H487.179V80.056ZM510.794 67.042V83.494H512.666V67.042H510.794ZM500.048 68.626V78.832H501.92V68.626H500.048ZM500.048 77.716V79.336H501.452C504.008 79.336 506.654 79.156 509.498 78.562L509.282 76.978C506.528 77.536 503.9 77.716 501.452 77.716H500.048ZM526.506 67.024V83.512H528.396V67.024H526.506ZM527.964 73.342V74.908H530.952V73.342H527.964ZM516.318 77.914V79.48H517.65C520.638 79.48 522.834 79.39 525.354 78.94L525.156 77.356C522.726 77.806 520.566 77.914 517.65 77.914H516.318ZM516.318 68.59V78.634H518.19V70.12H523.968V68.59H516.318ZM534.065 82.252C534.839 82.252 535.451 81.64 535.451 80.794C535.451 79.93 534.839 79.336 534.065 79.336C533.273 79.336 532.679 79.93 532.679 80.794C532.679 81.64 533.273 82.252 534.065 82.252Z" fill="black"/>
<g filter="url(#filter0_d_3191_1056)">
<circle cx="874.357" cy="62.3604" r="11.4923" transform="rotate(-51.954 874.357 62.3604)" fill="white" fill-opacity="0.35" stroke="#1BCDB8" stroke-width="5"/>
<path d="M890.213 77.3302C891.3 78.1811 892.871 77.9894 893.722 76.9021C894.573 75.8148 894.382 74.2435 893.294 73.3926L890.213 77.3302ZM883.373 71.9777L890.213 77.3302L893.294 73.3926L886.455 68.0401L883.373 71.9777Z" fill="#1BCDB8"/>
</g>
<g filter="url(#filter1_d_3191_1056)">
<path d="M838.027 30.3952C841.798 23.8632 851.226 23.8632 854.997 30.3952L878.558 71.2042C882.33 77.7362 877.615 85.9012 870.073 85.9012H822.951C815.408 85.9012 810.694 77.7362 814.466 71.2042L838.027 30.3952Z" fill="url(#paint0_linear_3191_1056)"/>
<path d="M843.287 43.2257C843.204 41.2254 844.803 39.5582 846.805 39.5582V39.5582C848.807 39.5582 850.406 41.2254 850.323 43.2257L849.354 66.4791C849.297 67.8456 848.173 68.9241 846.805 68.9241V68.9241C845.437 68.9241 844.313 67.8456 844.256 66.4791L843.287 43.2257Z" fill="white"/>
<circle cx="846.805" cy="74.4301" r="2.75306" fill="white"/>
</g>
<defs>
<filter id="filter0_d_3191_1056" x="854.506" y="43.5088" width="47.6063" height="43.2112" filterUnits="userSpaceOnUse" color-interpolation-filters="sRGB">
<feFlood flood-opacity="0" result="BackgroundImageFix"/>
<feColorMatrix in="SourceAlpha" type="matrix" values="0 0 0 0 0 0 0 0 0 0 0 0 0 0 0 0 0 0 127 0" result="hardAlpha"/>
<feOffset dx="1" dy="2"/>
<feGaussianBlur stdDeviation="3.42929"/>
<feComposite in2="hardAlpha" operator="out"/>
<feColorMatrix type="matrix" values="0 0 0 0 0 0 0 0 0 0.6875 0 0 0 0 0.60639 0 0 0 0.6 0"/>
<feBlend mode="normal" in2="BackgroundImageFix" result="effect1_dropShadow_3191_1056"/>
<feBlend mode="normal" in="SourceGraphic" in2="effect1_dropShadow_3191_1056" result="shape"/>
</filter>
<filter id="filter1_d_3191_1056" x="811.179" y="22.5568" width="80.4646" height="74.1221" filterUnits="userSpaceOnUse" color-interpolation-filters="sRGB">
<feFlood flood-opacity="0" result="BackgroundImageFix"/>
<feColorMatrix in="SourceAlpha" type="matrix" values="0 0 0 0 0 0 0 0 0 0 0 0 0 0 0 0 0 0 127 0" result="hardAlpha"/>
<feOffset dx="4.89899" dy="3.91919"/>
<feGaussianBlur stdDeviation="3.42929"/>
<feComposite in2="hardAlpha" operator="out"/>
<feColorMatrix type="matrix" values="0 0 0 0 0 0 0 0 0 0.6875 0 0 0 0 0.60639 0 0 0 0.6 0"/>
<feBlend mode="normal" in2="BackgroundImageFix" result="effect1_dropShadow_3191_1056"/>
<feBlend mode="normal" in="SourceGraphic" in2="effect1_dropShadow_3191_1056" result="shape"/>
</filter>
<linearGradient id="paint0_linear_3191_1056" x1="815.311" y1="86.36" x2="867.619" y2="27.6281" gradientUnits="userSpaceOnUse">
<stop stop-color="#49DDCB"/>
<stop offset="1" stop-color="#49DDCB" stop-opacity="0"/>
</linearGradient>
</defs>
</svg>
