<svg width="229" height="13" viewBox="0 0 229 13" fill="none" xmlns="http://www.w3.org/2000/svg">
<path d="M5.05534 10.132C7.41934 10.132 9.44734 8.392 9.44734 5.632C9.44734 2.884 7.41934 1.18 5.05534 1.18C2.70334 1.18 0.675344 2.872 0.675344 5.632C0.675344 8.392 2.70334 10.132 5.05534 10.132ZM5.05534 9.496C3.03934 9.496 1.38334 7.948 1.38334 5.632C1.38334 3.328 3.03934 1.816 5.05534 1.816C7.07134 1.816 8.72734 3.328 8.72734 5.632C8.72734 7.948 7.07134 9.496 5.05534 9.496ZM5.17534 8.308C5.95534 8.308 6.48334 7.984 6.98734 7.564L6.50734 6.88C6.12334 7.192 5.76334 7.432 5.22334 7.432C4.32334 7.432 3.74734 6.748 3.74734 5.644C3.74734 4.66 4.32334 3.952 5.28334 3.952C5.71534 3.952 6.02734 4.144 6.37534 4.48L6.92734 3.844C6.49534 3.412 5.99134 3.076 5.21134 3.076C3.87934 3.076 2.67934 4.072 2.67934 5.644C2.67934 7.3 3.77134 8.308 5.17534 8.308ZM13.9528 10H16.9168C18.8728 10 20.2888 9.16 20.2888 7.408C20.2888 6.22 19.5688 5.524 18.5608 5.308V5.26C19.3528 4.984 19.8088 4.192 19.8088 3.34C19.8088 1.744 18.5008 1.168 16.7008 1.168H13.9528V10ZM15.3568 4.852V2.26H16.5808C17.8168 2.26 18.4408 2.608 18.4408 3.532C18.4408 4.348 17.8888 4.852 16.5448 4.852H15.3568ZM15.3568 8.908V5.908H16.7608C18.1648 5.908 18.9208 6.352 18.9208 7.348C18.9208 8.416 18.1288 8.908 16.7608 8.908H15.3568ZM20.8047 10H22.2207L23.6487 5.212C23.9487 4.252 24.2127 3.268 24.4767 2.272H24.5247C24.8007 3.256 25.0647 4.252 25.3647 5.212L26.7807 10H28.2567L25.3407 1.168H23.7207L20.8047 10ZM22.4487 7.492H26.5767V6.4H22.4487V7.492ZM32.678 10.168C33.83 10.168 34.73 9.712 35.438 8.884L34.682 8.008C34.166 8.584 33.542 8.944 32.738 8.944C31.178 8.944 30.194 7.66 30.194 5.56C30.194 3.496 31.25 2.224 32.774 2.224C33.494 2.224 34.046 2.548 34.502 3.016L35.246 2.116C34.706 1.54 33.854 1.012 32.75 1.012C30.518 1.012 28.754 2.728 28.754 5.608C28.754 8.512 30.47 10.168 32.678 10.168ZM36.9918 10H38.3958V7.348L39.7518 5.68L42.2478 10H43.7838L40.6038 4.576L43.3398 1.168H41.7798L38.4198 5.344H38.3958V1.168H36.9918V10ZM43.8453 7.132H47.0133V6.1H43.8453V7.132ZM50.9379 10.168C52.8699 10.168 54.0459 9.004 54.0459 7.588C54.0459 6.292 53.2899 5.644 52.2459 5.2L51.0339 4.696C50.3139 4.396 49.6059 4.108 49.6059 3.352C49.6059 2.656 50.1819 2.224 51.0819 2.224C51.8619 2.224 52.4859 2.524 53.0379 3.004L53.7579 2.128C53.0979 1.444 52.1259 1.012 51.0819 1.012C49.4019 1.012 48.1899 2.056 48.1899 3.448C48.1899 4.732 49.1259 5.404 49.9779 5.752L51.2019 6.292C52.0179 6.64 52.6179 6.892 52.6179 7.696C52.6179 8.452 52.0179 8.944 50.9619 8.944C50.1099 8.944 49.2339 8.536 48.6099 7.9L47.7939 8.872C48.5979 9.688 49.7139 10.168 50.9379 10.168ZM57.1786 10H58.5826V2.344H61.1746V1.168H54.5866V2.344H57.1786V10ZM65.6998 10.168C67.9678 10.168 69.5398 8.404 69.5398 5.548C69.5398 2.704 67.9678 1.012 65.6998 1.012C63.4198 1.012 61.8478 2.704 61.8478 5.548C61.8478 8.404 63.4198 10.168 65.6998 10.168ZM65.6998 8.944C64.2238 8.944 63.2878 7.612 63.2878 5.548C63.2878 3.484 64.2238 2.224 65.6998 2.224C67.1638 2.224 68.1118 3.484 68.1118 5.548C68.1118 7.612 67.1638 8.944 65.6998 8.944ZM74.8187 10.168C75.9707 10.168 76.8707 9.712 77.5787 8.884L76.8227 8.008C76.3067 8.584 75.6827 8.944 74.8787 8.944C73.3187 8.944 72.3347 7.66 72.3347 5.56C72.3347 3.496 73.3907 2.224 74.9147 2.224C75.6347 2.224 76.1867 2.548 76.6427 3.016L77.3867 2.116C76.8467 1.54 75.9947 1.012 74.8907 1.012C72.6587 1.012 70.8947 2.728 70.8947 5.608C70.8947 8.512 72.6107 10.168 74.8187 10.168ZM79.1325 10H80.5365V7.348L81.8925 5.68L84.3885 10H85.9245L82.7445 4.576L85.4805 1.168H83.9205L80.5605 5.344H80.5365V1.168H79.1325V10ZM93.2405 10.168C94.3925 10.168 95.2925 9.712 96.0005 8.884L95.2445 8.008C94.7285 8.584 94.1045 8.944 93.3005 8.944C91.7405 8.944 90.7565 7.66 90.7565 5.56C90.7565 3.496 91.8125 2.224 93.3365 2.224C94.0565 2.224 94.6085 2.548 95.0645 3.016L95.8085 2.116C95.2685 1.54 94.4165 1.012 93.3125 1.012C91.0805 1.012 89.3165 2.728 89.3165 5.608C89.3165 8.512 91.0325 10.168 93.2405 10.168ZM100.086 10.168C101.718 10.168 103.194 8.896 103.194 6.712C103.194 4.504 101.718 3.232 100.086 3.232C98.4423 3.232 96.9783 4.504 96.9783 6.712C96.9783 8.896 98.4423 10.168 100.086 10.168ZM100.086 9.028C99.0423 9.028 98.4063 8.104 98.4063 6.712C98.4063 5.308 99.0423 4.384 100.086 4.384C101.118 4.384 101.778 5.308 101.778 6.712C101.778 8.104 101.118 9.028 100.086 9.028ZM104.817 10H106.209V5.896C106.617 4.852 107.265 4.468 107.793 4.468C108.069 4.468 108.237 4.504 108.465 4.576L108.705 3.376C108.501 3.28 108.297 3.232 107.973 3.232C107.265 3.232 106.569 3.736 106.101 4.588H106.065L105.945 3.4H104.817V10ZM109.727 12.676H111.119V10.54L111.071 9.424C111.623 9.904 112.223 10.168 112.811 10.168C114.299 10.168 115.655 8.86 115.655 6.604C115.655 4.564 114.707 3.232 113.039 3.232C112.295 3.232 111.587 3.64 111.011 4.132H110.975L110.855 3.4H109.727V12.676ZM112.547 9.016C112.139 9.016 111.635 8.86 111.119 8.416V5.188C111.671 4.66 112.163 4.384 112.667 4.384C113.771 4.384 114.227 5.236 114.227 6.616C114.227 8.164 113.495 9.016 112.547 9.016ZM117.854 10.168C118.37 10.168 118.778 9.76 118.778 9.196C118.778 8.62 118.37 8.224 117.854 8.224C117.326 8.224 116.93 8.62 116.93 9.196C116.93 9.76 117.326 10.168 117.854 10.168ZM122.336 10H123.752L125.18 5.212C125.48 4.252 125.744 3.268 126.008 2.272H126.056C126.332 3.256 126.596 4.252 126.896 5.212L128.312 10H129.788L126.872 1.168H125.252L122.336 10ZM123.98 7.492H128.108V6.4H123.98V7.492ZM132.213 10.168C132.561 10.168 132.777 10.108 132.957 10.048L132.777 9.004C132.657 9.028 132.609 9.028 132.549 9.028C132.381 9.028 132.225 8.896 132.225 8.524V0.447999H130.833V8.452C130.833 9.52 131.205 10.168 132.213 10.168ZM135.787 10.168C136.135 10.168 136.351 10.108 136.531 10.048L136.351 9.004C136.231 9.028 136.183 9.028 136.123 9.028C135.955 9.028 135.799 8.896 135.799 8.524V0.447999H134.407V8.452C134.407 9.52 134.779 10.168 135.787 10.168ZM140.677 10H142.069V5.896C142.477 4.852 143.125 4.468 143.653 4.468C143.929 4.468 144.097 4.504 144.325 4.576L144.565 3.376C144.361 3.28 144.157 3.232 143.833 3.232C143.125 3.232 142.429 3.736 141.961 4.588H141.925L141.805 3.4H140.677V10ZM145.587 10H146.979V3.4H145.587V10ZM146.283 2.164C146.787 2.164 147.147 1.84 147.147 1.336C147.147 0.844 146.787 0.52 146.283 0.52C145.767 0.52 145.431 0.844 145.431 1.336C145.431 1.84 145.767 2.164 146.283 2.164ZM151.312 12.964C153.424 12.964 154.768 11.932 154.768 10.66C154.768 9.532 153.952 9.052 152.392 9.052H151.168C150.34 9.052 150.064 8.8 150.064 8.416C150.064 8.092 150.22 7.9 150.424 7.72C150.724 7.852 151.06 7.912 151.348 7.912C152.74 7.912 153.832 7.096 153.832 5.644C153.832 5.14 153.652 4.708 153.4 4.444H154.648V3.4H152.32C152.068 3.304 151.732 3.232 151.348 3.232C149.992 3.232 148.792 4.108 148.792 5.608C148.792 6.388 149.224 7.024 149.668 7.36V7.408C149.296 7.672 148.936 8.116 148.936 8.632C148.936 9.172 149.188 9.52 149.536 9.736V9.796C148.924 10.156 148.576 10.672 148.576 11.236C148.576 12.376 149.728 12.964 151.312 12.964ZM151.348 7.024C150.676 7.024 150.112 6.484 150.112 5.608C150.112 4.72 150.664 4.216 151.348 4.216C152.044 4.216 152.596 4.72 152.596 5.608C152.596 6.484 152.032 7.024 151.348 7.024ZM151.516 12.052C150.424 12.052 149.752 11.668 149.752 11.032C149.752 10.696 149.92 10.36 150.316 10.06C150.592 10.132 150.88 10.156 151.192 10.156H152.188C152.992 10.156 153.424 10.336 153.424 10.888C153.424 11.488 152.668 12.052 151.516 12.052ZM155.981 10H157.373V5.32C157.949 4.744 158.369 4.432 158.981 4.432C159.749 4.432 160.085 4.876 160.085 6.028V10H161.477V5.848C161.477 4.18 160.853 3.232 159.449 3.232C158.549 3.232 157.877 3.724 157.313 4.276L157.373 2.968V0.447999H155.981V10ZM165.654 10.168C166.146 10.168 166.59 10.036 166.962 9.916L166.71 8.896C166.506 8.98 166.23 9.064 166.002 9.064C165.318 9.064 165.03 8.644 165.03 7.864V4.504H166.758V3.4H165.03V1.576H163.878L163.722 3.4L162.69 3.472V4.504H163.65V7.852C163.65 9.232 164.178 10.168 165.654 10.168ZM169.805 10.168C171.425 10.168 172.301 9.268 172.301 8.152C172.301 6.916 171.293 6.496 170.369 6.148C169.637 5.884 169.001 5.668 169.001 5.104C169.001 4.648 169.337 4.288 170.069 4.288C170.609 4.288 171.077 4.54 171.533 4.864L172.181 4.012C171.653 3.592 170.921 3.232 170.045 3.232C168.569 3.232 167.681 4.06 167.681 5.164C167.681 6.292 168.653 6.76 169.541 7.096C170.249 7.36 170.993 7.636 170.993 8.224C170.993 8.728 170.621 9.112 169.841 9.112C169.121 9.112 168.557 8.812 167.969 8.356L167.321 9.256C167.957 9.784 168.893 10.168 169.805 10.168ZM176.466 10H177.858V5.896C178.266 4.852 178.914 4.468 179.442 4.468C179.718 4.468 179.886 4.504 180.114 4.576L180.354 3.376C180.15 3.28 179.946 3.232 179.622 3.232C178.914 3.232 178.218 3.736 177.75 4.588H177.714L177.594 3.4H176.466V10ZM183.948 10.168C184.812 10.168 185.568 9.88 186.18 9.472L185.7 8.584C185.208 8.896 184.716 9.076 184.128 9.076C182.988 9.076 182.196 8.332 182.088 7.072H186.372C186.408 6.904 186.432 6.64 186.432 6.364C186.432 4.492 185.484 3.232 183.744 3.232C182.208 3.232 180.732 4.564 180.732 6.712C180.732 8.884 182.148 10.168 183.948 10.168ZM182.064 6.112C182.208 4.96 182.94 4.324 183.768 4.324C184.728 4.324 185.232 4.972 185.232 6.112H182.064ZM189.785 10.168C191.405 10.168 192.281 9.268 192.281 8.152C192.281 6.916 191.273 6.496 190.349 6.148C189.617 5.884 188.981 5.668 188.981 5.104C188.981 4.648 189.317 4.288 190.049 4.288C190.589 4.288 191.057 4.54 191.513 4.864L192.161 4.012C191.633 3.592 190.901 3.232 190.025 3.232C188.549 3.232 187.661 4.06 187.661 5.164C187.661 6.292 188.633 6.76 189.521 7.096C190.229 7.36 190.973 7.636 190.973 8.224C190.973 8.728 190.601 9.112 189.821 9.112C189.101 9.112 188.537 8.812 187.949 8.356L187.301 9.256C187.937 9.784 188.873 10.168 189.785 10.168ZM196.511 10.168C197.375 10.168 198.131 9.88 198.743 9.472L198.263 8.584C197.771 8.896 197.279 9.076 196.691 9.076C195.551 9.076 194.759 8.332 194.651 7.072H198.935C198.971 6.904 198.995 6.64 198.995 6.364C198.995 4.492 198.047 3.232 196.307 3.232C194.771 3.232 193.295 4.564 193.295 6.712C193.295 8.884 194.711 10.168 196.511 10.168ZM194.627 6.112C194.771 4.96 195.503 4.324 196.331 4.324C197.291 4.324 197.795 4.972 197.795 6.112H194.627ZM200.548 10H201.94V5.896C202.348 4.852 202.996 4.468 203.524 4.468C203.8 4.468 203.968 4.504 204.196 4.576L204.436 3.376C204.232 3.28 204.028 3.232 203.704 3.232C202.996 3.232 202.3 3.736 201.832 4.588H201.796L201.676 3.4H200.548V10ZM207.132 10H208.74L211.02 3.4H209.676L208.548 6.952C208.356 7.6 208.164 8.272 207.972 8.92H207.912C207.72 8.272 207.528 7.6 207.336 6.952L206.22 3.4H204.804L207.132 10ZM214.862 10.168C215.726 10.168 216.482 9.88 217.094 9.472L216.614 8.584C216.122 8.896 215.63 9.076 215.042 9.076C213.902 9.076 213.11 8.332 213.002 7.072H217.286C217.322 6.904 217.346 6.64 217.346 6.364C217.346 4.492 216.398 3.232 214.658 3.232C213.122 3.232 211.646 4.564 211.646 6.712C211.646 8.884 213.062 10.168 214.862 10.168ZM212.978 6.112C213.122 4.96 213.854 4.324 214.682 4.324C215.642 4.324 216.146 4.972 216.146 6.112H212.978ZM221.179 10.168C221.923 10.168 222.607 9.772 223.111 9.268H223.147L223.255 10H224.395V0.447999H223.003V2.884L223.063 3.976C222.535 3.52 222.043 3.232 221.287 3.232C219.823 3.232 218.467 4.564 218.467 6.712C218.467 8.896 219.523 10.168 221.179 10.168ZM221.515 9.016C220.483 9.016 219.895 8.188 219.895 6.688C219.895 5.272 220.639 4.384 221.563 4.384C222.055 4.384 222.523 4.552 223.003 4.996V8.212C222.535 8.764 222.055 9.016 221.515 9.016ZM227.214 10.168C227.73 10.168 228.138 9.76 228.138 9.196C228.138 8.62 227.73 8.224 227.214 8.224C226.686 8.224 226.29 8.62 226.29 9.196C226.29 9.76 226.686 10.168 227.214 10.168Z" fill="#3A95FF"/>
</svg>
