<svg width="54" height="54" viewBox="0 0 54 54" fill="none" xmlns="http://www.w3.org/2000/svg">
<g filter="url(#filter0_d_3001_1052)">
<circle cx="27" cy="25" r="23" fill="white"/>
</g>
<mask id="path-2-inside-1_3001_1052" fill="white">
<path fill-rule="evenodd" clip-rule="evenodd" d="M17.9037 29.202C16.1391 27.8596 15 25.7375 15 23.3493C15 19.2904 18.2904 16 22.3493 16C24.3143 16 26.0991 16.7712 27.4178 18.0274C28.7364 16.7712 30.5212 16 32.4862 16C36.5451 16 39.8355 19.2904 39.8355 23.3493C39.8355 25.6823 38.7484 27.7614 37.0532 29.1077L27.9262 38.2346C27.6529 38.508 27.2097 38.508 26.9363 38.2346L17.9037 29.202Z"/>
</mask>
<path d="M17.9037 29.202L19.3179 27.7878L19.2222 27.6921L19.1146 27.6102L17.9037 29.202ZM27.4178 18.0274L26.0382 19.4754L27.4178 20.7897L28.7973 19.4754L27.4178 18.0274ZM37.0532 29.1077L35.8094 27.5415L35.7198 27.6126L35.639 27.6935L37.0532 29.1077ZM27.9262 38.2346L26.512 36.8204L26.512 36.8204L27.9262 38.2346ZM26.9363 38.2346L28.3505 36.8204L28.3505 36.8204L26.9363 38.2346ZM19.1146 27.6102C17.8258 26.6298 17 25.0863 17 23.3493H13C13 26.3886 14.4524 29.0894 16.6927 30.7937L19.1146 27.6102ZM17 23.3493C17 20.395 19.395 18 22.3493 18V14C17.1858 14 13 18.1858 13 23.3493H17ZM22.3493 18C23.7804 18 25.0766 18.5594 26.0382 19.4754L28.7973 16.5793C27.1217 14.983 24.8481 14 22.3493 14V18ZM28.7973 19.4754C29.7589 18.5594 31.0551 18 32.4862 18V14C29.9874 14 27.7138 14.983 26.0382 16.5793L28.7973 19.4754ZM32.4862 18C35.4406 18 37.8355 20.395 37.8355 23.3493H41.8355C41.8355 18.1858 37.6497 14 32.4862 14V18ZM37.8355 23.3493C37.8355 25.0464 37.0474 26.5583 35.8094 27.5415L38.297 30.6739C40.4494 28.9645 41.8355 26.3181 41.8355 23.3493H37.8355ZM35.639 27.6935L26.512 36.8204L29.3405 39.6488L38.4674 30.5219L35.639 27.6935ZM26.512 36.8204C27.0197 36.3127 27.8428 36.3127 28.3505 36.8204L25.5221 39.6488C26.5765 40.7032 28.286 40.7032 29.3405 39.6488L26.512 36.8204ZM28.3505 36.8204L19.3179 27.7878L16.4894 30.6162L25.5221 39.6488L28.3505 36.8204Z" fill="#D9DFE6" mask="url(#path-2-inside-1_3001_1052)"/>
<defs>
<filter id="filter0_d_3001_1052" x="0" y="0" width="54" height="54" filterUnits="userSpaceOnUse" color-interpolation-filters="sRGB">
<feFlood flood-opacity="0" result="BackgroundImageFix"/>
<feColorMatrix in="SourceAlpha" type="matrix" values="0 0 0 0 0 0 0 0 0 0 0 0 0 0 0 0 0 0 127 0" result="hardAlpha"/>
<feOffset dy="2"/>
<feGaussianBlur stdDeviation="2"/>
<feComposite in2="hardAlpha" operator="out"/>
<feColorMatrix type="matrix" values="0 0 0 0 0 0 0 0 0 0 0 0 0 0 0 0 0 0 0.15 0"/>
<feBlend mode="normal" in2="BackgroundImageFix" result="effect1_dropShadow_3001_1052"/>
<feBlend mode="normal" in="SourceGraphic" in2="effect1_dropShadow_3001_1052" result="shape"/>
</filter>
</defs>
</svg>
