<svg width="54" height="54" viewBox="0 0 54 54" fill="none" xmlns="http://www.w3.org/2000/svg">
<g filter="url(#filter0_d_3001_1059)">
<circle cx="27" cy="25" r="23" fill="white"/>
</g>
<path fill-rule="evenodd" clip-rule="evenodd" d="M17.9036 29.2019C16.1391 27.8595 15 25.7374 15 23.3493C15 19.2904 18.2904 16 22.3493 16C24.3143 16 26.0992 16.7712 27.4178 18.0274C28.7364 16.7712 30.5213 16 32.4863 16C36.5452 16 39.8356 19.2904 39.8356 23.3493C39.8356 25.6822 38.7486 27.7612 37.0534 29.1075L27.9263 38.2347C27.6529 38.508 27.2097 38.508 26.9363 38.2347L17.9036 29.2019Z" fill="url(#paint0_linear_3001_1059)"/>
<defs>
<filter id="filter0_d_3001_1059" x="0" y="0" width="54" height="54" filterUnits="userSpaceOnUse" color-interpolation-filters="sRGB">
<feFlood flood-opacity="0" result="BackgroundImageFix"/>
<feColorMatrix in="SourceAlpha" type="matrix" values="0 0 0 0 0 0 0 0 0 0 0 0 0 0 0 0 0 0 127 0" result="hardAlpha"/>
<feOffset dy="2"/>
<feGaussianBlur stdDeviation="2"/>
<feComposite in2="hardAlpha" operator="out"/>
<feColorMatrix type="matrix" values="0 0 0 0 0 0 0 0 0 0 0 0 0 0 0 0 0 0 0.15 0"/>
<feBlend mode="normal" in2="BackgroundImageFix" result="effect1_dropShadow_3001_1059"/>
<feBlend mode="normal" in="SourceGraphic" in2="effect1_dropShadow_3001_1059" result="shape"/>
</filter>
<linearGradient id="paint0_linear_3001_1059" x1="32.8168" y1="16.5259" x2="24.6504" y2="37.6153" gradientUnits="userSpaceOnUse">
<stop stop-color="#FF7058"/>
<stop offset="1" stop-color="#FF2F7A"/>
</linearGradient>
</defs>
</svg>
