<svg width="57" height="53" viewBox="0 0 57 53" fill="none" xmlns="http://www.w3.org/2000/svg">
<rect x="1.5" y="20.4648" width="10.213" height="27.2488" rx="4.62188" fill="#FF0000" stroke="#FF0000" stroke-width="3" stroke-linejoin="round"/>
<path d="M53.2939 27.6936H40.842" stroke="#FF0000" stroke-width="3" stroke-linecap="round" stroke-linejoin="round"/>
<path d="M46.9907 35.1053H38.3514" stroke="#FF0000" stroke-width="3" stroke-linecap="round" stroke-linejoin="round"/>
<path d="M45.497 42.517H36.8577" stroke="#FF0000" stroke-width="3" stroke-linecap="round" stroke-linejoin="round"/>
<path d="M40.0952 49.4345L26.149 49.9286" stroke="#FF0000" stroke-width="3" stroke-linecap="round" stroke-linejoin="round"/>
<path d="M25.8997 49.9286L17.2787 48.2053" stroke="#FF0000" stroke-width="3" stroke-linecap="round" stroke-linejoin="round"/>
<path d="M52.4493 28.6819C53.1269 31.3707 52.0485 35.5994 44.8264 35.1053" stroke="#FF0000" stroke-width="3" stroke-linecap="round" stroke-linejoin="round"/>
<path d="M50.4575 36.0935C51.1351 38.7823 49.8077 43.011 42.8346 42.5169" stroke="#FF0000" stroke-width="3" stroke-linecap="round" stroke-linejoin="round"/>
<path d="M47.4691 43.0111C48.1467 45.6999 46.5702 48.9404 39.8462 49.4345" stroke="#FF0000" stroke-width="3" stroke-linecap="round" stroke-linejoin="round"/>
<path d="M34.558 19.973H52.3448C53.5306 20.3091 55.8005 21.6871 55.3939 24.5103C54.9874 27.3336 53.1918 28.7116 52.3448 29.0477" stroke="#FF0000" stroke-width="3" stroke-linecap="round" stroke-linejoin="round"/>
<path d="M17.2787 20.477L21.8524 15.4357L25.918 3.33619C26.765 2.32789 28.5606 0.91616 30.9999 3.33607C33.4393 5.75597 32.1857 12.9148 31.5081 16.4438L34.5573 19.9729" stroke="#FF0000" stroke-width="3" stroke-linecap="round" stroke-linejoin="round"/>
<path d="M17.2787 20.4771V47.1969" stroke="#FF0000" stroke-width="3" stroke-linecap="round" stroke-linejoin="round"/>
</svg>
