<svg width="55" height="51" viewBox="0 0 55 51" fill="none" xmlns="http://www.w3.org/2000/svg">
<path d="M51.2904 23.9186H39.2913" stroke="#0075FF" stroke-width="3" stroke-linecap="round"/>
<path d="M45.2164 16.7764H36.8912" stroke="#0075FF" stroke-width="3" stroke-linecap="round"/>
<path d="M43.7769 9.63431H35.4518" stroke="#0075FF" stroke-width="3" stroke-linecap="round"/>
<path d="M38.5716 2.96824L25.1326 2.4921" stroke="#0075FF" stroke-width="3" stroke-linecap="round"/>
<path d="M24.8922 2.49218L16.5847 4.15286" stroke="#0075FF" stroke-width="3" stroke-linecap="round"/>
<path d="M50.4763 22.9662C51.1293 20.3752 50.0901 16.3002 43.1306 16.7764" stroke="#0075FF" stroke-width="3" stroke-linecap="round"/>
<path d="M48.557 15.8241C49.21 13.2331 47.9308 9.15814 41.2113 9.63428" stroke="#0075FF" stroke-width="3" stroke-linecap="round"/>
<path d="M45.6773 9.15811C46.3302 6.5671 44.8111 3.44441 38.3315 2.96826" stroke="#0075FF" stroke-width="3" stroke-linecap="round"/>
<path d="M33.2357 31.3584H50.3757C51.5184 31.0346 53.7058 29.7067 53.314 26.9861C52.9222 24.2655 51.1919 22.9376 50.3757 22.6138" stroke="#0075FF" stroke-width="3" stroke-linecap="round"/>
<path d="M16.5847 30.8728L20.9921 35.7307L24.9099 47.3903C25.726 48.3619 27.4564 49.7223 29.807 47.3904C32.1576 45.0585 30.9497 38.16 30.2967 34.7593L33.235 31.3586" stroke="#0075FF" stroke-width="3" stroke-linecap="round"/>
<path d="M16.5847 30.8727V5.12456" stroke="#0075FF" stroke-width="3" stroke-linecap="round"/>
<rect x="1.5" y="-1.5" width="10" height="26" rx="4.62188" transform="matrix(1 0 0 -1 0 29.0002)" fill="#0075FF" stroke="#0075FF" stroke-width="3" stroke-linejoin="round"/>
</svg>
