<svg width="26" height="29" viewBox="0 0 26 29" fill="none" xmlns="http://www.w3.org/2000/svg">
<path d="M9.13428 8.01758C6.4082 9.60931 0.956055 14.3096 0.956055 20.3769C0.956055 27.961 9.6619 27.6802 12.8277 27.6802" stroke="black" stroke-width="1.5"/>
<path d="M16.5205 8.01758C19.2466 9.60931 24.6987 14.3096 24.6987 20.3769C24.6987 27.961 15.9929 27.6802 12.8271 27.6802" stroke="black" stroke-width="1.5"/>
<path d="M12.8276 8.01782H16.2775L18.4729 4.20743C18.682 3.71892 18.8493 2.62466 17.8457 2.15569C16.8421 1.68672 14.0821 1.37407 12.8276 1.27637" stroke="black" stroke-width="1.5"/>
<path d="M13.356 8.01782H9.90606L7.71067 4.20743C7.50158 3.71892 7.33431 2.62466 8.33792 2.15569C9.34153 1.68672 12.1014 1.37407 13.356 1.27637" stroke="black" stroke-width="1.5"/>
<path d="M16.5205 8.0177C18.1913 7.36228 22.1134 6.9503 24.4349 10.5457" stroke="black" stroke-width="1.5" stroke-linecap="round"/>
<path d="M7.41064 14.8311L9.65435 21.51C9.81119 21.9769 10.4555 22.0181 10.6705 21.5749L12.7553 17.2787" stroke="black" stroke-width="1.5" stroke-linecap="round"/>
<path d="M18.1006 14.8311L15.8179 21.626C15.6753 22.0504 15.0896 22.0879 14.8941 21.685L12.756 17.2787" stroke="black" stroke-width="1.5" stroke-linecap="round"/>
<path d="M5.27246 16.9521H20.2374" stroke="black" stroke-width="1.5" stroke-linecap="round"/>
</svg>
