<svg width="69" height="77" viewBox="0 0 69 77" fill="none" xmlns="http://www.w3.org/2000/svg">
<path d="M24.5253 21.668C17.4362 25.8396 3.25781 38.1583 3.25781 54.0596C3.25781 73.9363 25.8974 73.2001 34.13 73.2001" stroke="#0075FF" stroke-width="6.11"/>
<path d="M43.7335 21.668C50.8226 25.8396 65.001 38.1583 65.001 54.0596C65.001 73.9363 42.3614 73.2001 34.1288 73.2001" stroke="#0075FF" stroke-width="6.11"/>
<path d="M34.1309 21.6682H43.1023L48.8115 11.6818C49.3552 10.4015 49.7902 7.53363 47.1803 6.30454C44.5704 5.07545 37.3932 4.25606 34.1309 4" stroke="#0075FF" stroke-width="6.11"/>
<path d="M35.5039 21.6682H26.5324L20.8233 11.6818C20.2796 10.4015 19.8446 7.53363 22.4545 6.30454C25.0644 5.07545 32.2415 4.25606 35.5039 4" stroke="#0075FF" stroke-width="6.11"/>
<path d="M43.7344 21.6684C48.0794 19.9507 58.2786 18.8709 64.3158 28.294" stroke="#0075FF" stroke-width="6.11" stroke-linecap="round"/>
<path d="M27 56C30 58.6667 36.1944 62.1668 39.5 56.5C43 50.5 36.5356 48.1212 33 46C30.5 44.5001 27 41 30.5 37.4999C34.347 33.6528 39.5 36.8333 41 38.5" stroke="#0075FF" stroke-width="6.11" stroke-linecap="round"/>
<path d="M34.5 31V35" stroke="#0075FF" stroke-width="5.89" stroke-linecap="round"/>
<path d="M34.5 60V64" stroke="#0075FF" stroke-width="5.89" stroke-linecap="round"/>
</svg>
